<?xml version="1.0" standalone="no"?>
<!DOCTYPE svg PUBLIC "-//W3C//DTD SVG 20010904//EN"
 "http://www.w3.org/TR/2001/REC-SVG-20010904/DTD/svg10.dtd">
<svg version="1.0" xmlns="http://www.w3.org/2000/svg"
 width="640.000000pt" height="640.000000pt" viewBox="0 0 640.000000 640.000000"
 preserveAspectRatio="xMidYMid meet">
<metadata>
Created by potrace 1.11, written by Peter Selinger 2001-2013
</metadata>
<g transform="translate(0.000000,640.000000) scale(0.100000,-0.100000)"
fill="#000000" stroke="none">
<path d="M0 5825 c0 -500 2 -574 15 -569 9 4 48 -27 107 -84 136 -132 198
-179 198 -151 0 25 -53 119 -76 134 -17 11 -24 25 -24 49 0 36 32 86 56 86 8
0 27 11 42 25 15 14 42 33 60 42 24 12 30 18 20 24 -10 7 -10 9 1 9 8 0 11 3
8 7 -4 3 3 11 16 18 14 7 24 8 28 2 9 -12 39 -2 39 13 0 6 -5 8 -12 4 -7 -4
-8 -3 -4 5 4 6 11 9 16 6 4 -3 11 1 13 7 4 10 6 10 6 0 2 -21 41 6 41 28 0 11
5 20 10 20 6 0 10 7 10 15 0 8 4 15 9 15 5 0 11 8 15 18 3 9 17 32 30 50 14
18 23 39 20 45 -8 21 19 49 39 41 31 -12 48 -68 37 -126 -13 -68 -14 -67 16
-78 30 -12 50 -4 35 14 -6 7 -7 24 -2 42 5 21 17 32 42 41 20 6 38 7 44 2 17
-17 35 -9 35 16 0 14 5 25 10 25 6 0 10 15 10 33 0 18 5 38 11 44 6 6 16 20
23 31 27 46 65 98 81 112 19 16 149 60 178 60 10 0 15 4 12 10 -3 5 1 23 9 39
21 40 11 90 -21 102 -30 11 -64 5 -128 -26 -67 -31 -163 -60 -172 -51 -11 11
58 68 117 95 30 14 75 28 100 32 25 4 79 20 121 35 l76 28 11 100 c7 56 12
109 12 119 0 16 -39 17 -670 17 l-670 0 0 -575z"/>
<path d="M2721 6396 c7 -8 129 -10 136 -3 3 4 -27 7 -67 7 -40 0 -71 -2 -69
-4z"/>
<path d="M2932 6383 c12 -11 52 -21 125 -30 59 -7 167 -20 238 -29 72 -9 137
-16 145 -16 8 0 33 -4 55 -8 22 -5 76 -11 120 -15 44 -4 84 -9 88 -12 5 -3 14
3 21 12 15 21 66 11 66 -14 0 -18 13 -21 140 -24 90 -3 110 8 84 48 -10 16
-15 39 -12 65 l4 40 -545 0 c-508 0 -544 -1 -529 -17z m848 -73 c0 -5 -4 -10
-9 -10 -6 0 -13 5 -16 10 -3 6 1 10 9 10 9 0 16 -4 16 -10z"/>
<path d="M4246 6391 c-3 -4 -6 -22 -8 -38 -3 -36 -71 -93 -117 -96 -39 -3 -40
-16 -1 -23 17 -4 30 -13 30 -21 0 -8 5 -11 11 -8 5 4 18 -2 28 -14 10 -11 21
-18 25 -14 3 3 6 1 6 -5 0 -7 7 -12 15 -12 8 0 15 -4 15 -10 0 -5 6 -10 14
-10 8 0 17 -4 20 -8 6 -10 -152 -9 -174 1 -8 3 -136 13 -285 22 -240 14 -328
23 -575 56 -36 4 -101 8 -145 9 -44 0 -116 6 -160 14 -44 7 -127 19 -185 25
-58 7 -136 18 -175 26 -74 15 -251 31 -453 40 -67 4 -132 8 -145 11 -12 3 -42
7 -67 9 -25 3 -58 7 -75 9 -16 3 -59 8 -95 11 -36 3 -94 10 -130 16 -36 6 -83
9 -105 7 l-40 -3 -11 -115 c-12 -126 -21 -170 -35 -170 -14 0 -11 -30 5 -45
20 -21 5 -125 -19 -125 -7 0 -18 -6 -24 -14 -9 -11 -58 -18 -188 -28 -15 -2
-4 -29 20 -50 17 -16 19 -26 13 -90 -3 -40 -8 -84 -11 -98 -4 -14 5 -2 19 25
22 44 29 50 56 50 16 0 31 -2 31 -5 6 -23 5 -48 -2 -44 -5 3 -9 -4 -9 -16 0
-11 7 -23 15 -26 8 -4 15 -13 15 -22 0 -8 3 -13 6 -9 3 3 19 1 35 -5 25 -9 29
-15 29 -48 0 -21 2 -45 5 -52 3 -8 -8 -34 -25 -60 -27 -40 -31 -55 -34 -134
-6 -161 -54 -275 -158 -375 -67 -65 -84 -101 -54 -112 8 -3 21 -25 27 -49 14
-46 31 -78 65 -120 20 -25 23 -25 43 -12 11 8 21 12 21 9 0 -3 11 6 25 20 14
14 32 25 40 25 7 0 22 3 32 7 17 6 17 5 -1 -15 -14 -16 -22 -19 -32 -11 -7 6
-15 6 -18 1 -3 -6 4 -13 17 -17 13 -4 17 -8 10 -12 -28 -11 -11 -39 20 -34 4
1 16 -3 25 -8 19 -10 36 -4 43 16 3 9 9 9 19 3 13 -9 13 -11 0 -20 -8 -5 -19
-11 -25 -13 -5 -3 -6 -8 -2 -13 4 -5 11 -4 15 2 4 6 18 15 32 19 25 8 25 7 7
-13 -14 -15 -15 -22 -6 -28 8 -4 10 -3 5 4 -12 20 10 13 30 -9 14 -16 16 -23
6 -26 -6 -3 -10 -9 -6 -14 3 -5 -1 -9 -8 -9 -9 0 -9 -3 2 -10 20 -13 4 -13
-21 1 -18 9 -19 7 -13 -16 5 -21 3 -24 -12 -20 -12 4 -11 1 3 -6 13 -7 23 -17
23 -22 0 -6 -3 -8 -6 -4 -3 3 -12 0 -19 -6 -10 -9 -10 -15 -1 -26 9 -12 8 -12
-11 -2 -13 6 -23 16 -23 21 0 6 -6 9 -12 7 -7 -1 -12 3 -11 10 1 6 -4 14 -12
17 -20 7 -1 -42 23 -60 10 -8 12 -13 5 -14 -7 0 -18 9 -25 20 -13 21 -38 27
-38 10 0 -5 8 -14 18 -20 15 -10 14 -11 -5 -7 -27 6 -41 -9 -16 -17 10 -3 6
-4 -9 -2 -22 2 -26 0 -22 -18 2 -12 8 -22 14 -24 5 -2 10 -13 10 -25 0 -20 1
-20 13 -3 13 17 14 17 31 0 15 -14 19 -15 27 -3 5 8 9 9 9 3 0 -11 4 -12 55
-18 18 -1 30 -9 30 -17 0 -15 32 -49 47 -49 11 0 31 -49 30 -72 0 -10 3 -18 9
-18 5 0 9 -9 9 -20 0 -11 4 -20 9 -20 5 0 8 -25 7 -56 0 -31 2 -58 6 -60 5 -3
8 0 8 7 0 7 2 10 5 7 6 -6 -25 -89 -42 -109 -7 -8 -13 -24 -14 -35 0 -10 -3
-14 -5 -7 -7 17 -34 4 -34 -17 0 -10 -7 -23 -15 -30 -14 -11 -19 -7 -16 13 0
4 -4 7 -9 7 -6 0 -10 -6 -9 -12 3 -28 -2 -37 -20 -35 -13 1 -17 7 -13 20 4 16
2 18 -14 9 -15 -8 -30 -6 -58 6 -21 10 -37 19 -36 22 4 12 -13 39 -21 34 -5
-3 -9 0 -9 6 0 6 -4 8 -10 5 -5 -3 -10 1 -10 9 0 9 5 16 11 16 7 0 0 11 -14
24 -14 13 -23 27 -19 32 4 4 1 4 -5 0 -7 -4 -21 -2 -30 3 -14 8 -15 11 -3 11
13 1 13 2 0 13 -8 7 -15 18 -16 25 -1 6 -2 17 -2 22 -3 13 -52 13 -52 -1 0 -5
-5 -7 -10 -4 -6 3 -10 -2 -11 -12 0 -10 -3 -13 -6 -5 -7 19 -26 14 -58 -15
-19 -18 -27 -22 -22 -10 3 9 2 17 -4 17 -17 0 -23 -31 -8 -42 12 -8 11 -9 -1
-5 -17 4 -52 -31 -44 -44 3 -5 -2 -12 -10 -15 -9 -3 -16 -10 -16 -16 0 -5 4
-6 10 -3 6 3 7 -1 4 -9 -3 -9 -1 -16 5 -16 6 0 13 11 17 25 3 14 12 25 19 25
7 0 15 5 17 11 2 6 16 12 31 12 15 1 27 5 27 10 0 4 5 7 10 7 20 0 9 -29 -12
-33 -14 -3 -10 -5 12 -5 36 0 133 -42 146 -63 5 -9 2 -10 -12 -4 -44 18 -123
18 -168 -1 -25 -11 -46 -23 -46 -27 0 -5 -4 -6 -8 -3 -4 2 -8 -4 -8 -15 0 -10
4 -19 9 -19 5 0 7 -7 3 -15 -3 -8 -1 -15 4 -15 4 0 16 -22 25 -50 13 -38 30
-61 71 -96 30 -26 54 -49 54 -53 0 -3 -17 -6 -38 -6 -29 0 -37 4 -36 18 1 9
-2 17 -8 17 -5 0 -6 5 -3 10 3 6 1 10 -4 10 -6 0 -11 -11 -11 -25 0 -14 4 -25
8 -25 14 0 55 -62 46 -69 -5 -3 -10 -15 -12 -26 -2 -15 -1 -17 6 -6 11 15 36
5 26 -11 -4 -6 2 -8 17 -3 16 4 20 3 11 -3 -8 -5 -12 -18 -10 -27 3 -18 4 -18
20 -1 17 16 17 15 12 -16 -6 -32 -6 -32 11 -13 9 11 14 15 11 8 -4 -6 4 -19
16 -27 27 -19 52 -3 45 30 -3 17 0 21 11 16 10 -3 13 -1 8 6 -4 7 -2 12 4 12
6 0 8 5 5 10 -4 6 -11 8 -16 5 -5 -3 -6 1 -2 10 4 11 8 13 13 5 3 -6 14 -8 24
-4 13 5 12 -1 -9 -31 -14 -21 -24 -39 -22 -41 7 -7 46 9 41 17 -3 5 0 9 5 9
15 0 14 -16 -3 -33 -13 -13 -13 -17 -1 -33 13 -18 14 -17 8 6 l-6 25 22 -23
c18 -18 20 -26 11 -37 -9 -11 -17 -12 -34 -4 -18 9 -19 8 -6 -3 9 -7 14 -22
12 -33 -4 -20 -4 -20 11 0 14 18 14 16 10 -25 -3 -25 -9 -47 -12 -50 -13 -9
-20 -39 -10 -42 5 -2 11 -13 12 -25 1 -17 4 -19 14 -11 16 13 17 22 2 12 -8
-5 -10 1 -7 19 3 18 1 24 -6 20 -6 -3 -4 1 4 10 20 20 60 32 60 17 0 -6 -10
-15 -22 -20 -13 -5 -16 -9 -8 -9 8 0 22 4 30 9 12 7 13 13 3 28 -9 16 -9 19 5
18 9 0 19 4 20 9 11 30 25 45 42 45 11 0 22 9 26 23 11 37 25 49 41 36 7 -7
16 -9 20 -5 3 3 1 6 -5 6 -13 0 -7 39 8 54 14 14 40 16 40 3 0 -5 3 -7 6 -4 4
4 -1 19 -11 34 -10 15 -14 25 -10 20 5 -4 15 -1 24 7 14 13 16 10 16 -30 0
-24 -3 -44 -8 -44 -8 0 -47 -37 -47 -46 0 -3 7 -4 15 0 18 7 21 -20 3 -28 -7
-3 2 -5 19 -3 25 3 30 1 22 -9 -5 -6 -18 -10 -28 -7 -11 3 -21 -2 -24 -11 -7
-17 16 -69 27 -59 3 3 -1 15 -11 25 -9 10 -11 18 -6 18 6 0 16 -7 23 -15 7 -8
20 -15 29 -15 14 0 14 2 1 10 -8 5 -10 10 -4 10 17 0 25 -12 15 -24 -12 -15
21 -56 49 -61 15 -3 20 0 17 9 -3 8 0 19 6 26 9 10 9 11 -2 5 -8 -4 -17 -2
-22 6 -7 9 -8 4 -4 -16 6 -29 6 -29 -9 -11 -20 25 -20 35 -1 42 8 4 12 11 8
17 -10 16 -4 79 9 94 5 7 8 19 5 28 -4 8 -2 17 2 20 5 2 12 -5 16 -18 6 -19 9
-16 19 23 7 25 17 56 23 70 6 14 13 48 17 75 4 28 10 58 13 69 3 12 1 16 -6
12 -7 -5 -9 -1 -5 8 3 9 10 13 16 10 5 -4 8 14 6 44 -2 43 -5 49 -18 39 -8 -7
-5 4 8 26 27 46 29 65 5 46 -16 -13 -16 -11 1 15 13 21 15 30 6 36 -9 5 -9 17
-2 44 10 33 9 36 -14 42 -22 6 -23 7 -8 35 9 18 11 29 4 29 -6 0 -8 5 -5 10 4
6 11 7 17 4 7 -4 8 -2 4 4 -4 6 -13 9 -21 5 -11 -4 -13 -1 -9 11 3 9 1 16 -5
16 -6 0 -11 -5 -11 -11 0 -5 -5 -7 -10 -4 -8 5 -7 12 2 23 10 12 10 14 1 8 -8
-4 -13 -1 -13 8 0 22 -17 20 -24 -1 -3 -12 -5 -9 -4 7 1 43 -2 50 -16 50 -10
0 -14 12 -14 37 l0 38 13 -30 c14 -31 16 -28 20 30 0 12 7 19 18 19 18 -2 21
15 10 54 -4 15 -8 20 -13 12 -5 -7 -9 -2 -12 15 -4 20 -2 25 9 21 12 -5 14 1
10 31 -3 21 -10 50 -16 65 -11 30 -4 91 10 82 10 -6 0 25 -14 44 -7 9 -4 18
10 30 16 13 19 27 17 62 -3 33 -1 40 6 25 10 -24 14 -9 11 52 l-3 41 44 -2
c24 -2 56 -8 72 -15 22 -9 37 -9 55 -1 42 17 129 20 142 4 16 -20 19 -94 3
-94 -7 0 -16 -5 -20 -12 -5 -7 -3 -8 6 -3 9 6 11 -2 8 -31 -3 -22 -8 -46 -11
-54 -4 -8 -3 -21 2 -29 8 -12 12 -12 25 -2 11 9 16 10 16 2 0 -6 -4 -11 -9
-11 -5 0 -9 -12 -9 -27 1 -56 -2 -73 -14 -71 -9 2 -15 -24 -19 -89 -4 -50 -10
-96 -13 -102 -4 -6 -7 -36 -7 -66 -1 -40 -5 -58 -16 -62 -8 -3 -19 0 -23 7 -5
8 -11 -7 -15 -39 -4 -28 -11 -53 -16 -57 -5 -3 -6 3 -2 13 4 12 3 15 -4 8 -15
-15 -32 -115 -26 -149 4 -19 2 -27 -5 -22 -6 3 -13 -2 -17 -13 -8 -25 4 -71
19 -71 7 0 7 -3 1 -8 -14 -10 -18 -69 -5 -77 8 -5 8 -10 0 -20 -8 -9 -8 -15 0
-20 6 -3 7 -12 3 -18 -4 -6 -8 -22 -9 -36 -2 -13 -7 -27 -12 -30 -10 -7 17
-104 30 -109 4 -2 8 -12 8 -22 0 -25 11 -51 19 -46 3 2 7 -18 8 -46 2 -30 -1
-47 -7 -43 -6 4 -10 -10 -10 -34 0 -23 -4 -41 -10 -41 -5 0 -10 -5 -10 -10 0
-7 7 -7 21 0 26 14 34 7 20 -17 -6 -10 -11 -13 -11 -8 0 12 -20 -16 -20 -29 0
-4 6 -6 14 -3 8 3 17 0 19 -7 4 -9 0 -12 -12 -9 -9 2 -27 -5 -40 -16 -13 -12
-20 -21 -15 -21 6 0 15 5 22 12 23 23 25 -3 2 -34 -22 -30 -14 -30 25 1 18 15
19 15 7 -1 -9 -11 -10 -18 -2 -23 5 -3 10 -11 10 -16 0 -6 -4 -7 -10 -4 -13 8
-52 -19 -42 -30 4 -5 2 -5 -5 -1 -7 4 -17 -2 -23 -15 -7 -12 -8 -19 -2 -15 5
3 9 -6 10 -19 0 -25 -12 -33 -21 -15 -3 6 -4 5 -3 -2 2 -7 -1 -24 -6 -37 -8
-21 -7 -22 7 -11 14 12 15 10 9 -16 l-7 -29 22 25 c14 16 19 19 15 8 -4 -11
-1 -18 6 -18 6 0 8 -5 4 -11 -5 -8 -9 -8 -14 1 -5 8 -9 7 -13 -4 -3 -8 1 -23
10 -32 17 -17 27 -64 14 -64 -5 0 -8 10 -7 23 1 21 -10 37 -26 37 -15 0 -3
-45 17 -64 20 -19 20 -19 -3 -13 -13 3 -21 3 -18 0 3 -4 -1 -15 -11 -25 -9
-11 -11 -18 -5 -18 7 0 12 4 12 8 0 10 45 32 65 32 8 0 14 -3 14 -7 -1 -5 0
-10 1 -13 9 -25 6 -38 -8 -33 -8 4 -13 2 -9 -3 3 -6 2 -16 -4 -24 -6 -10 -9
-11 -9 -2 0 6 -8 12 -17 13 -16 0 -16 1 1 8 11 4 21 16 22 26 2 13 -8 7 -36
-20 -22 -21 -37 -42 -34 -47 3 -4 10 -6 15 -2 5 3 7 10 4 15 -4 5 4 9 17 9 16
0 19 -3 10 -9 -7 -4 -12 -12 -10 -18 2 -6 -8 -20 -22 -32 -20 -18 -17 -17 16
4 45 28 86 26 62 -3 -11 -14 -10 -15 7 -9 19 7 19 7 1 -8 -17 -12 -17 -17 -5
-31 13 -16 12 -17 -8 -12 -13 4 -26 2 -29 -4 -6 -9 -47 -28 -70 -32 -7 -1 -18
-7 -26 -13 -11 -9 -14 -8 -14 7 0 10 5 16 11 14 5 -3 1 2 -9 10 -11 9 -16 16
-10 16 5 0 10 20 12 44 2 31 -2 45 -12 49 -9 4 -22 22 -30 42 -9 20 -19 34
-24 31 -5 -3 -6 9 -4 27 4 28 3 30 -10 19 -9 -7 -20 -12 -24 -10 -5 1 -23 -4
-40 -12 -23 -10 -28 -17 -20 -25 6 -7 20 -10 31 -8 16 3 15 2 -5 -11 -14 -8
-26 -10 -28 -5 -2 5 -11 9 -20 9 -11 0 -13 -3 -6 -8 6 -4 14 -17 18 -29 6 -19
4 -23 -16 -23 -19 0 -20 -2 -8 -10 13 -9 11 -13 -10 -30 -20 -16 -22 -20 -7
-20 9 0 17 -5 17 -11 0 -6 -9 -9 -20 -6 -26 7 -26 -5 0 -23 20 -14 20 -14 -3
-27 -12 -7 -17 -12 -10 -13 7 0 10 -7 7 -15 -4 -9 0 -15 10 -15 28 0 17 -18
-14 -25 -30 -7 -42 -24 -17 -26 6 0 2 -5 -10 -11 -13 -6 -23 -15 -23 -20 0
-12 14 -10 30 4 8 7 7 4 -3 -8 -9 -11 -17 -26 -17 -32 0 -7 -4 -12 -8 -12 -5
0 -17 -7 -28 -16 -19 -15 -19 -16 1 -10 20 6 20 6 1 -9 -21 -16 -10 -21 13 -6
8 5 10 14 6 21 -5 8 -3 11 6 8 8 -3 13 -12 13 -21 -1 -9 9 -18 23 -22 13 -3
21 -10 17 -16 -9 -15 45 -57 67 -52 11 3 19 0 19 -6 0 -6 -13 -9 -29 -7 -21 2
-28 0 -24 -10 3 -8 9 -14 15 -14 5 0 7 -4 3 -10 -3 -5 -12 -7 -20 -3 -8 3 -15
-1 -15 -8 0 -7 3 -9 6 -6 4 4 19 -2 34 -13 30 -22 50 -26 50 -10 0 5 -7 7 -15
4 -11 -5 -13 -2 -8 11 6 16 9 15 29 -10 17 -22 20 -32 12 -42 -8 -10 -6 -13 6
-13 9 0 16 -4 16 -10 0 -5 -3 -9 -7 -9 -23 4 -43 -2 -38 -11 4 -6 15 -8 26 -5
11 4 19 2 19 -4 0 -6 -7 -11 -15 -11 -8 0 -12 -6 -9 -15 4 -10 -1 -13 -23 -12
-23 2 -27 -2 -25 -18 2 -15 1 -17 -6 -6 -6 7 -15 10 -22 6 -9 -6 -9 -9 0 -15
7 -5 3 -9 -14 -12 -14 -3 -23 -1 -20 3 5 9 -14 13 -53 9 -13 -1 -23 3 -23 8 0
5 -17 8 -37 6 -21 -1 -42 1 -48 5 -15 12 -56 21 -50 11 3 -4 -3 -11 -13 -15
-16 -6 -16 -7 1 -16 9 -6 17 -17 17 -25 0 -16 23 -44 36 -44 8 0 96 -42 104
-50 3 -3 14 -6 25 -7 11 -1 37 -5 58 -8 26 -4 37 -3 32 4 -3 6 -13 11 -21 11
-8 0 -14 4 -14 10 0 10 27 3 48 -13 16 -12 16 -63 0 -69 -17 -7 -76 0 -108 12
-3 1 -14 2 -25 1 -27 -2 -86 43 -111 85 -7 10 -15 16 -19 12 -9 -8 6 -29 75
-108 52 -59 129 -108 150 -95 6 3 10 2 10 -3 0 -6 10 -8 22 -4 17 4 20 2 15
-12 -6 -14 -3 -15 13 -6 16 8 22 8 26 -3 5 -15 100 -21 109 -7 3 5 31 14 63
20 70 14 131 36 155 57 16 15 17 14 17 -8 0 -17 3 -20 9 -10 6 10 13 11 29 2
28 -15 32 -14 32 5 0 15 2 15 25 0 28 -19 33 -15 9 8 -14 15 -13 16 6 16 12 0
30 -4 40 -10 21 -11 34 9 23 38 -6 15 -5 15 10 3 9 -7 14 -17 11 -22 -3 -5 -1
-25 5 -44 6 -23 6 -35 0 -35 -6 0 -7 -4 -4 -10 14 -23 -15 -8 -33 17 l-20 28
2 -32 c1 -18 6 -36 11 -40 4 -4 5 0 2 10 -7 18 8 24 18 6 4 -5 -1 -19 -10 -29
-9 -10 -12 -20 -7 -24 6 -3 12 0 15 6 3 7 4 3 4 -9 -1 -17 -5 -20 -18 -12 -25
13 -36 11 -43 -7 -4 -10 1 -25 10 -35 10 -11 14 -19 10 -19 -4 0 -1 -6 6 -14
16 -17 48 -3 48 22 -1 16 -2 16 -14 -1 -10 -13 -16 -15 -21 -7 -9 15 3 26 40
34 17 4 25 3 19 -1 -6 -4 -10 -16 -8 -26 4 -28 14 -33 14 -7 0 17 3 20 13 12
7 -6 18 -7 27 -2 10 6 5 13 -21 29 -19 12 -27 21 -19 20 21 -1 88 -27 73 -28
-7 -1 -13 -10 -13 -21 0 -11 -3 -19 -7 -18 -5 2 -26 -8 -48 -22 -34 -21 -52
-25 -121 -25 -53 1 -87 5 -98 14 -13 11 -16 11 -16 0 0 -11 -2 -11 -8 -2 -5 7
-18 10 -32 7 -14 -3 -32 -6 -40 -6 -8 0 -21 -5 -27 -11 -7 -5 -13 -6 -14 -1 0
5 -4 0 -9 -11 -8 -19 -8 -19 -18 5 -11 25 -11 25 -11 -7 -1 -33 13 -53 22 -31
3 7 6 -8 6 -33 1 -45 1 -45 -29 -41 -27 4 -44 22 -20 22 6 0 10 10 9 23 0 12
-3 16 -6 10 -2 -7 -12 -13 -21 -13 -12 0 -11 4 7 16 20 15 21 18 8 26 -9 5
-14 15 -10 23 4 11 1 13 -11 9 -11 -4 -16 -1 -16 10 0 9 -7 16 -15 16 -14 0
-66 -20 -75 -30 -9 -9 -130 -7 -130 2 0 5 -4 7 -9 3 -5 -3 -12 -1 -16 5 -4 6
-11 8 -16 5 -5 -4 -9 -2 -9 4 0 6 -37 9 -93 8 l-93 -2 6 -35 c6 -39 -13 -35
210 -44 52 -2 105 -4 117 -5 16 -1 27 -12 37 -35 8 -19 25 -40 38 -47 30 -17
141 -14 243 6 118 22 112 25 113 -47 0 -75 -11 -87 -82 -88 -36 0 -55 -6 -78
-25 -38 -32 -99 -34 -128 -5 -12 12 -18 25 -15 30 4 6 1 10 -4 10 -6 0 -11 -7
-11 -15 0 -18 -31 -20 -47 -4 -7 7 -19 8 -30 4 -10 -4 -45 -9 -78 -11 -33 -2
-82 -6 -110 -8 -71 -7 -246 13 -272 30 -23 14 -34 42 -12 28 7 -4 10 -1 7 7
-8 26 -70 59 -105 57 -42 -3 -42 -12 2 -40 19 -13 35 -26 35 -30 0 -13 -24 -9
-47 7 -25 18 -24 22 -23 -85 0 -89 19 -171 42 -192 30 -27 48 -22 48 11 0 16
7 37 16 45 12 13 13 17 2 21 -8 3 -13 23 -14 50 0 24 2 43 5 40 4 -2 7 5 7 16
0 10 -3 19 -6 19 -3 0 -6 9 -7 20 -1 13 4 20 17 20 24 0 36 -18 21 -33 -13
-13 -14 -62 -2 -85 9 -17 13 -45 27 -189 8 -85 29 -125 81 -151 48 -24 149
-44 187 -36 18 3 35 -1 46 -11 14 -13 22 -14 44 -4 14 7 29 10 32 7 3 -3 -6
-29 -20 -57 -15 -28 -23 -51 -20 -51 13 0 54 52 60 76 10 41 46 70 85 69 19 0
39 2 44 6 6 3 33 9 62 12 42 5 56 2 76 -14 30 -23 68 -24 128 -4 44 16 109 66
109 85 0 5 4 10 8 10 5 0 20 9 33 21 59 52 139 109 152 109 8 0 20 6 26 14 6
8 21 16 32 19 19 5 20 4 4 -19 -17 -26 -9 -31 19 -11 15 11 18 28 17 111 -1
83 5 146 24 236 2 8 4 18 4 23 1 4 6 7 11 7 14 0 12 -128 -4 -244 -12 -83 -12
-104 -1 -137 8 -21 11 -38 7 -36 -4 1 -8 -3 -10 -8 -1 -6 5 -11 15 -13 18 -3
33 23 57 92 6 18 7 18 26 1 11 -10 20 -14 20 -10 0 4 9 0 20 -10 14 -12 19
-28 17 -44 -2 -14 -2 -20 0 -13 9 25 28 5 33 -34 5 -35 6 -37 13 -14 3 14 7
36 7 49 0 25 -61 161 -72 161 -4 0 -5 -7 -1 -16 4 -12 0 -15 -18 -12 -18 2
-23 8 -21 23 2 11 7 22 12 25 4 3 19 28 34 55 19 36 25 43 23 25 -1 -14 3 -26
8 -28 14 -4 19 38 6 51 -19 19 38 103 63 94 10 -4 12 0 9 14 -3 11 8 57 25
102 16 45 35 104 42 130 12 43 16 48 39 45 19 -2 27 -10 31 -33 4 -16 3 -41
-1 -55 l-7 -25 -7 23 c-4 12 -11 22 -16 22 -14 0 -11 -12 11 -45 11 -16 20
-37 20 -46 0 -19 27 -45 37 -35 4 4 1 16 -6 28 -7 11 -8 17 -2 13 18 -11 34 5
20 21 -6 8 -8 14 -3 14 5 0 -2 9 -16 20 -28 22 -15 26 24 9 16 -7 26 -22 29
-43 3 -17 8 -44 12 -61 l6 -30 -25 30 c-19 22 -26 25 -26 13 0 -9 4 -18 10
-20 5 -1 11 -14 13 -28 2 -14 14 -30 25 -36 12 -6 19 -14 15 -17 -3 -4 -1 -7
6 -7 7 0 9 -4 6 -10 -3 -5 -1 -10 4 -10 21 0 11 -18 -15 -27 l-25 -8 25 -38
c32 -46 19 -48 -25 -3 -18 19 -36 33 -40 30 -15 -9 5 -44 52 -89 27 -26 47
-50 44 -54 -4 -3 -13 2 -20 13 -8 10 -21 16 -29 13 -9 -4 -16 3 -20 19 -4 13
-13 24 -21 24 -20 0 -19 -13 5 -55 11 -20 20 -44 20 -54 0 -10 6 -24 14 -30
20 -17 27 -74 9 -66 -8 3 -21 5 -28 5 -8 0 -29 15 -49 33 -48 45 -57 20 -11
-29 19 -20 35 -40 35 -43 0 -4 9 -14 20 -24 11 -9 20 -24 20 -32 0 -8 4 -15 8
-15 13 0 30 -57 22 -71 -7 -10 -14 -8 -35 7 -55 38 -69 44 -77 31 -14 -21 -9
-45 12 -60 21 -14 15 -28 -17 -38 -20 -7 16 -77 47 -91 39 -17 50 -45 34 -83
-11 -25 -13 -26 -14 -8 0 16 -5 20 -19 16 -10 -2 -25 3 -35 12 -17 17 -19 14
-16 -22 1 -13 -3 -23 -9 -23 -13 0 -14 -40 -1 -60 7 -12 10 -11 16 5 8 20 33
44 46 45 4 0 12 -16 19 -35 7 -19 17 -35 21 -35 4 0 8 -7 8 -16 0 -8 5 -12 10
-9 6 4 5 -5 -2 -19 -6 -14 -16 -26 -22 -26 -6 0 -3 -5 7 -11 23 -14 22 -32 -2
-24 -13 4 -23 0 -30 -12 -10 -17 -11 -16 -17 4 -3 13 -10 23 -15 23 -5 0 1
-20 13 -44 13 -24 26 -42 29 -40 3 1 12 -6 20 -18 19 -27 31 -39 62 -63 30
-22 35 -42 12 -42 -8 0 -15 5 -15 10 0 6 -3 7 -7 4 -3 -4 -12 -2 -20 4 -10 9
-13 8 -13 -1 0 -7 -6 -10 -14 -7 -8 3 -17 1 -20 -6 -2 -7 -5 -3 -6 8 0 11 -7
28 -14 38 -8 10 -12 28 -9 40 3 16 2 18 -5 8 -8 -11 -10 -11 -15 0 -3 8 -6 4
-6 -8 -1 -13 3 -23 7 -23 4 0 8 -9 9 -20 2 -22 -16 -27 -34 -9 -11 11 -33 5
-33 -9 0 -4 15 -24 33 -44 33 -38 67 -50 67 -24 0 19 69 19 77 0 4 -12 246
-14 1629 -14 l1624 0 0 1996 0 1996 -27 -34 c-15 -18 -31 -35 -35 -38 -4 -3
-14 -25 -22 -49 -9 -23 -25 -55 -36 -71 -11 -15 -20 -31 -20 -34 0 -4 -11 -19
-25 -34 -14 -15 -25 -32 -25 -39 0 -14 -32 -77 -42 -81 -5 -2 -8 -17 -8 -33 0
-16 -4 -29 -10 -29 -5 0 -10 -6 -10 -14 0 -8 -3 -16 -7 -18 -11 -4 -50 -86
-58 -120 -4 -16 -10 -28 -14 -28 -11 0 -78 -131 -96 -190 -26 -86 -45 -122
-81 -158 -19 -18 -34 -42 -34 -53 0 -11 -7 -33 -15 -50 -14 -26 -18 -28 -30
-15 -8 8 -15 22 -15 30 0 9 -4 16 -10 16 -5 0 -10 8 -10 19 0 10 -11 43 -24
74 -14 30 -22 64 -19 75 3 12 -3 36 -13 54 -15 29 -18 71 -24 333 -3 165 -9
306 -14 313 -4 7 -3 19 4 27 16 19 5 50 -24 69 -21 13 -24 21 -20 60 4 45 4
46 -21 36 l-25 -9 5 76 c3 42 7 85 11 95 5 18 1 19 -55 17 -57 -2 -92 8 -63
18 26 10 12 42 -28 59 -21 10 -37 21 -34 25 2 4 -18 7 -45 7 -56 -2 -95 19
-67 34 21 12 21 39 0 31 -13 -5 -15 -2 -9 15 7 25 -10 30 -19 6 -3 -8 -11 -12
-17 -9 -6 4 -8 13 -5 20 6 17 -30 65 -49 65 -14 0 -34 49 -36 89 -1 16 -3 19
-6 9 -2 -9 -17 -20 -33 -23 -16 -3 -34 -13 -41 -21 -26 -32 -40 -16 -38 44 2
61 -7 102 -21 102 -5 0 -7 -6 -5 -12 7 -21 -19 -46 -45 -43 -14 1 -32 3 -41 4
-9 0 -29 12 -45 26 -30 26 -58 32 -69 15 -3 -5 2 -10 11 -10 14 0 15 -3 6 -12
-16 -16 -15 -28 3 -28 8 0 15 -7 15 -15 0 -35 -44 -2 -65 49 -8 20 -19 36 -24
36 -5 0 -18 16 -30 35 -12 21 -28 35 -40 35 -11 0 -25 9 -31 19 -12 24 -13 34
-1 27 5 -3 11 3 14 14 4 17 0 20 -26 22 -18 0 -38 2 -46 2 -8 1 -17 10 -21 21
-7 19 -8 19 -18 -5 -5 -14 -7 -30 -5 -37 4 -11 -45 -43 -66 -43 -5 0 -11 19
-13 43 -2 29 -7 41 -17 39 -9 -2 -12 4 -8 18 4 15 0 20 -14 20 -12 0 -19 -7
-19 -18 0 -36 -13 -31 -37 15 -19 39 -21 48 -9 55 9 5 12 16 8 30 -5 21 -4 21
23 -4 17 -16 26 -32 22 -41 -4 -11 0 -15 17 -13 29 3 63 27 64 46 3 42 29 123
36 112 4 -7 13 -12 19 -12 7 0 4 5 -6 11 -14 8 -17 18 -13 37 5 22 4 24 -4 10
-15 -24 -34 -23 -27 2 3 11 1 20 -5 20 -6 0 -27 14 -48 30 -21 17 -43 30 -49
30 -7 0 -11 20 -10 53 0 34 3 45 8 33 7 -18 8 -18 14 -2 12 31 8 59 -7 53 -9
-4 -17 1 -19 11 -3 10 -5 5 -6 -11 0 -15 -8 -30 -16 -33 -8 -4 -15 -10 -15
-15 0 -5 -10 -19 -21 -30 -17 -17 -23 -19 -30 -8 -6 10 -9 11 -9 2 0 -7 -7
-13 -15 -13 -8 0 -15 -5 -15 -11 0 -6 -7 -9 -15 -6 -8 4 -22 -4 -34 -19 -13
-17 -21 -20 -24 -12 -3 7 -5 -3 -4 -22 1 -20 -3 -34 -9 -33 -5 1 -11 -17 -13
-39 -1 -23 -4 -45 -6 -48 -9 -14 20 -60 37 -60 11 0 15 -5 12 -15 -4 -8 -10
-12 -15 -9 -5 3 -9 0 -9 -6 0 -6 -4 -8 -10 -5 -5 3 -10 -3 -10 -14 0 -12 -7
-21 -15 -21 -10 0 -13 -9 -11 -27 3 -25 0 -28 -26 -30 l-30 -2 7 47 c4 29 0
75 -10 120 -8 40 -15 89 -15 108 0 20 -6 37 -14 40 -15 6 -13 57 3 62 6 2 11
16 12 30 l0 27 11 -25 11 -25 5 24 c3 18 6 21 12 10 5 -7 12 -10 17 -6 4 4 2
16 -4 26 -19 30 22 67 73 67 57 0 86 23 82 64 -4 48 -28 58 -66 30 -25 -19
-38 -21 -75 -16 -39 6 -45 11 -50 35 -4 21 -16 32 -49 45 -69 29 -108 49 -108
56 0 4 -18 12 -40 19 -49 14 -111 66 -104 86 3 8 9 14 12 13 4 0 63 0 131 1
105 1 122 3 107 14 -13 9 -20 33 -24 86 -6 59 -11 76 -27 85 -10 6 -25 16 -32
23 -8 7 -27 20 -43 30 -37 21 -37 27 -5 41 35 16 76 15 101 -3 12 -8 24 -12
27 -9 6 6 17 -2 70 -51 30 -28 67 -36 67 -14 0 6 5 7 10 4 6 -3 10 -1 10 6 0
6 12 31 28 54 29 45 66 71 119 81 17 3 41 15 52 25 11 11 25 19 31 19 5 0 10
7 10 15 0 8 5 24 12 35 10 16 8 22 -15 42 -16 14 -38 23 -59 22 -35 -1 -50
-20 -21 -27 10 -2 -3 -4 -29 -4 -28 0 -49 4 -52 12 -3 9 2 11 16 7 16 -4 20
-2 15 10 -4 11 2 17 22 21 25 5 28 12 39 70 7 35 12 76 12 91 0 26 -1 26 -69
26 -39 0 -72 -4 -75 -9z m-1182 -327 c3 -9 6 -26 6 -39 0 -13 7 -30 15 -39 8
-8 16 -25 16 -38 1 -17 3 -18 6 -5 2 9 8 15 13 12 4 -3 11 6 14 20 7 27 26 35
26 11 0 -9 9 -14 20 -13 13 1 19 6 15 15 -3 9 6 7 28 -7 36 -22 44 -22 99 3
47 20 75 20 95 0 13 -13 17 -13 24 -2 6 10 9 8 9 -6 0 -19 0 -19 13 -1 19 26
125 31 158 7 25 -17 55 -17 77 0 9 8 12 2 12 -26 0 -33 2 -37 20 -31 18 6 20
2 20 -38 0 -27 -6 -49 -14 -57 -8 -6 -16 -21 -18 -33 -2 -12 -9 -21 -15 -20
-15 3 -29 -65 -16 -78 13 -13 4 -60 -11 -53 -6 3 -3 -1 7 -9 9 -8 17 -18 17
-23 0 -19 54 -83 78 -93 15 -6 59 -15 97 -21 91 -14 111 -28 129 -91 31 -105
-20 -120 -214 -65 -61 17 -64 15 -74 -48 -10 -58 -31 -86 -64 -86 -16 0 -34
-6 -41 -12 -11 -11 -13 -9 -8 9 3 13 0 26 -5 29 -14 9 -3 137 17 193 8 24 15
63 15 88 0 24 7 58 16 74 19 38 16 42 -24 28 l-31 -11 4 -61 c3 -34 8 -72 10
-84 3 -12 1 -24 -4 -27 -4 -3 -11 -28 -15 -56 -8 -57 -24 -100 -39 -100 -5 0
-6 -14 -3 -32 19 -90 19 -101 2 -110 -10 -6 -15 -16 -11 -28 3 -10 1 -37 -4
-61 -6 -28 -6 -48 -1 -53 6 -6 37 -11 71 -12 68 -2 101 -15 119 -50 11 -19 11
-26 0 -39 -7 -8 -16 -12 -21 -9 -5 3 -53 10 -106 15 -55 5 -106 15 -120 24
-26 17 -30 50 -9 74 8 9 16 27 18 40 3 20 -3 25 -42 37 -52 16 -80 10 -80 -16
0 -26 -44 -38 -94 -27 -61 13 -183 78 -217 114 -16 18 -29 35 -28 38 3 22 -12
29 -58 28 l-51 -2 -12 77 c-15 94 -15 162 -2 267 6 44 14 133 17 197 5 74 12
123 21 135 7 10 14 35 14 56 0 25 7 43 20 54 11 10 20 22 20 27 0 14 42 56 56
56 6 0 15 -7 18 -16z m731 -196 c-8 -81 -19 -118 -35 -118 -6 0 -9 4 -5 9 3 6
-3 14 -12 20 -10 6 -13 11 -7 11 9 0 23 45 29 95 1 11 28 55 33 55 2 0 1 -32
-3 -72z m-1122 -352 c22 -17 22 -44 0 -68 -17 -19 -63 -25 -63 -8 0 6 -9 10
-20 10 -27 0 -44 34 -30 60 8 15 21 20 53 20 23 0 50 -7 60 -14z m1734 -308
c-3 -8 -6 -5 -6 6 -1 11 2 17 5 13 3 -3 4 -12 1 -19z m84 -102 c-6 -7 -9 -21
-5 -30 5 -13 2 -15 -12 -9 -40 14 -34 53 8 53 16 0 18 -3 9 -14z m-663 -62
c29 -20 30 -64 2 -64 -11 0 -35 10 -54 22 l-33 22 21 18 c26 22 36 22 64 2z
m-1741 -164 c-1 -17 -19 -21 -33 -8 -9 10 3 25 20 25 8 0 14 -8 13 -17z m-281
-10 c18 -7 30 -7 40 0 9 8 19 8 36 -1 l23 -12 -30 -10 c-17 -5 -43 -15 -60
-22 -35 -16 -164 -40 -171 -32 -10 10 20 45 55 66 40 23 67 26 107 11z m309
-59 c8 -14 -23 -29 -51 -23 -24 4 -30 13 -17 25 10 10 61 8 68 -2z m1879 -17
c28 -29 33 -44 14 -44 -9 0 -10 -3 -2 -8 16 -10 9 -44 -12 -55 -13 -7 -14 -11
-3 -17 8 -5 24 -1 40 11 15 11 31 19 36 18 18 -3 36 1 30 8 -11 10 51 43 81
43 32 -1 67 -24 57 -40 -4 -6 -1 -9 7 -8 7 2 12 -5 12 -14 -1 -10 2 -18 7 -18
5 0 9 -6 9 -14 0 -20 21 -25 50 -13 23 9 23 10 5 14 -28 7 -43 23 -21 23 16 0
110 -14 172 -26 26 -5 39 -32 23 -50 -6 -7 -8 -17 -5 -23 7 -11 48 -2 57 12 9
12 31 -1 24 -14 -4 -5 -1 -9 4 -9 6 0 11 -9 11 -21 0 -13 -4 -18 -12 -13 -8 5
-9 2 -5 -9 4 -10 1 -17 -6 -17 -25 0 -37 -21 -21 -37 19 -20 18 -43 -3 -44
-10 -1 -31 -3 -48 -5 -16 -2 -109 -3 -205 -4 -179 0 -226 -7 -286 -44 -32 -19
-55 -64 -48 -93 5 -16 -3 -18 -60 -18 -37 0 -66 -2 -66 -5 1 -12 49 -50 64
-50 9 0 16 -4 16 -9 0 -4 21 -16 46 -26 25 -10 41 -20 35 -24 -12 -8 29 -61
47 -61 21 0 0 -29 -32 -44 -31 -15 -36 -14 -77 6 -24 12 -58 23 -75 24 -27 2
-33 -1 -37 -24 -4 -21 1 -33 22 -54 16 -15 31 -25 34 -22 2 3 7 -4 10 -16 3
-11 1 -20 -4 -20 -5 0 -9 -5 -9 -11 0 -5 4 -7 10 -4 6 4 8 -16 3 -56 l-6 -62
31 5 c27 4 31 1 36 -24 3 -15 9 -27 13 -27 5 1 33 -10 64 -24 31 -14 91 -30
134 -36 84 -12 101 -21 118 -61 l11 -25 4 25 c4 23 5 24 13 5 7 -19 8 -19 8 2
2 51 36 28 41 -27 4 -40 -9 -60 -40 -60 -16 0 -32 -4 -35 -10 -3 -5 -14 -10
-25 -10 -10 0 -28 -11 -41 -25 -13 -13 -31 -25 -40 -25 -22 0 -57 -30 -42 -36
7 -3 9 -12 6 -20 -3 -7 -9 -11 -14 -8 -5 3 -9 -2 -9 -10 0 -9 5 -16 10 -16 6
0 10 -10 10 -22 0 -19 2 -20 10 -8 5 8 10 11 10 5 0 -5 10 -22 23 -37 52 -62
56 -68 50 -68 -4 0 -2 -5 5 -12 7 -7 12 -23 12 -38 0 -20 -2 -22 -10 -10 -13
20 -1 -56 15 -93 8 -20 9 -45 2 -85 -11 -64 -22 -83 -43 -75 -21 8 -17 -8 23
-94 20 -43 38 -88 38 -101 3 -31 16 -43 57 -46 89 -7 124 -62 75 -120 -49 -56
-155 -36 -262 50 -22 18 -63 38 -90 44 -28 7 -90 32 -140 56 -49 24 -109 48
-132 54 -23 6 -49 17 -57 25 -8 8 -19 15 -25 15 -5 0 -22 5 -36 12 -23 10 -25
16 -25 74 0 35 7 84 16 110 16 47 13 162 -6 229 -14 48 -22 121 -13 108 7 -9
20 -2 47 28 22 22 45 38 52 35 26 -10 14 25 -18 58 -46 46 -88 97 -88 106 0 4
-15 25 -32 45 -32 35 -33 36 -38 13 -3 -12 -14 -24 -24 -26 -11 -3 -16 0 -12
7 4 6 1 11 -7 11 -18 0 -29 17 -113 165 -12 22 -30 67 -39 100 -9 33 -24 90
-34 127 -22 79 -43 128 -55 128 -4 0 -5 7 -2 16 3 8 2 13 -2 10 -13 -8 -82 16
-76 26 3 4 0 8 -5 8 -6 0 -11 5 -11 11 0 5 5 7 12 3 6 -4 8 -3 5 3 -3 5 1 32
9 61 14 47 14 53 -3 79 -9 15 -26 36 -36 45 -16 14 -17 20 -6 40 6 13 15 25
19 28 7 5 29 110 34 163 6 65 52 57 48 -9 -2 -31 0 -34 14 -26 9 5 26 7 36 4
15 -4 19 -12 17 -41 -2 -20 0 -42 5 -49 4 -7 5 -16 1 -21 -8 -14 -14 -216 -7
-228 4 -6 23 -16 43 -23 20 -7 47 -21 59 -30 19 -14 21 -21 12 -52 -8 -28 -6
-39 8 -58 10 -13 28 -24 41 -25 25 -2 40 -25 16 -25 -13 0 -35 -38 -25 -43 1
-1 12 -10 23 -18 29 -24 65 -33 65 -17 0 7 12 27 28 43 26 30 34 41 70 97 12
19 28 28 59 33 24 3 43 10 43 16 0 5 5 8 12 7 6 -2 14 6 16 17 2 11 9 23 16
27 8 6 7 8 -1 8 -7 0 -13 11 -13 25 0 14 5 25 10 25 6 0 10 6 10 14 0 8 12 24
27 36 28 22 53 69 53 99 0 9 7 29 15 45 9 17 14 48 13 72 -3 39 -7 45 -44 63
-42 21 -79 71 -58 78 7 2 10 13 7 23 -3 11 -2 31 1 45 6 22 12 25 49 26 23 0
51 4 62 9 29 13 30 12 59 -16z m653 -46 c-3 -8 -6 -5 -6 6 -1 11 2 17 5 13 3
-3 4 -12 1 -19z m-3077 8 c0 -2 -11 -6 -25 -8 -13 -3 -22 -1 -19 3 5 9 44 13
44 5z m-110 -36 c-8 -5 -19 -10 -25 -10 -5 0 -3 5 5 10 8 5 20 10 25 10 6 0 3
-5 -5 -10z m3130 -29 c0 -6 -4 -13 -10 -16 -5 -3 -10 1 -10 9 0 9 5 16 10 16
6 0 10 -4 10 -9z m333 -132 c8 -31 -13 -59 -45 -59 -35 0 -37 24 -6 57 27 29
44 29 51 2z m-3338 -9 c3 -5 1 -10 -4 -10 -6 0 -11 5 -11 10 0 6 2 10 4 10 3
0 8 -4 11 -10z m581 -58 c-11 -10 -15 4 -8 28 l7 25 3 -23 c2 -13 1 -26 -2
-30z m-592 2 c3 -8 2 -12 -4 -9 -6 3 -10 10 -10 16 0 14 7 11 14 -7z m-24 -35
c0 -5 4 -8 8 -5 15 9 31 -8 18 -19 -7 -7 -18 -3 -33 13 -16 16 -18 22 -8 22 8
0 15 -5 15 -11z m227 -21 c-3 -8 -6 -5 -6 6 -1 11 2 17 5 13 3 -3 4 -12 1 -19z
m417 -54 c3 -8 2 -12 -4 -9 -6 3 -10 10 -10 16 0 14 7 11 14 -7z m-659 -62
c-3 -3 -11 0 -18 7 -9 10 -8 11 6 5 10 -3 15 -9 12 -12z m719 2 c3 -8 2 -12
-4 -9 -6 3 -10 10 -10 16 0 14 7 11 14 -7z m-61 -29 c-3 -9 -8 -14 -10 -11 -3
3 -2 9 2 15 9 16 15 13 8 -4z m37 6 c0 -6 -4 -12 -8 -15 -5 -3 -9 1 -9 9 0 8
4 15 9 15 4 0 8 -4 8 -9z m120 -21 c0 -5 -5 -10 -11 -10 -5 0 -7 5 -4 10 3 6
8 10 11 10 2 0 4 -4 4 -10z m1 -40 c8 12 9 10 4 -7 -5 -18 -3 -22 9 -17 9 3
14 10 11 14 -3 5 3 6 14 3 10 -2 18 -12 17 -21 -1 -10 6 -16 17 -16 9 1 17 -2
17 -7 0 -5 7 -5 17 -2 10 4 14 2 10 -4 -4 -6 6 -10 24 -11 35 -1 42 -5 44 -30
1 -9 5 -24 9 -33 8 -19 5 -41 -9 -51 -5 -4 6 -8 25 -8 44 0 24 -16 -32 -25
-25 -5 -38 -12 -38 -22 0 -11 3 -13 13 -5 7 6 18 7 26 3 11 -7 9 -10 -7 -15
-11 -4 -23 -14 -26 -22 -3 -9 -11 -12 -18 -8 -7 4 -10 4 -6 0 4 -5 3 -19 -2
-32 -11 -28 4 -33 19 -6 9 14 10 13 11 -10 0 -17 -5 -27 -12 -25 -7 1 -13 -8
-13 -21 0 -12 -7 -30 -16 -40 -8 -10 -14 -23 -11 -30 2 -7 -4 -12 -13 -12 -12
0 -15 5 -11 16 5 14 4 15 -9 4 -10 -9 -12 -17 -5 -30 12 -23 2 -32 -21 -19
-13 6 -19 6 -19 -1 0 -5 -9 -10 -21 -10 -13 0 -18 -4 -13 -12 4 -6 -9 1 -30
17 -26 20 -36 34 -33 47 3 10 2 18 -2 18 -20 0 -44 69 -38 109 3 22 1 44 -4
47 -14 8 -11 44 4 39 8 -4 13 7 14 31 2 38 39 139 60 165 7 8 13 24 13 35 0
16 2 17 10 4 9 -13 11 -13 21 0z m-536 -40 c3 -5 1 -10 -4 -10 -6 0 -11 5 -11
10 0 6 2 10 4 10 3 0 8 -4 11 -10z m-595 -230 c0 -5 -5 -10 -11 -10 -5 0 -7 5
-4 10 3 6 8 10 11 10 2 0 4 -4 4 -10z m510 -28 c0 -5 -7 -17 -15 -28 -14 -18
-14 -17 -4 9 12 27 19 34 19 19z m-40 -32 c0 -11 -4 -20 -9 -20 -5 0 -7 9 -4
20 3 11 7 20 9 20 2 0 4 -9 4 -20z m170 -60 c-6 -11 -13 -20 -16 -20 -2 0 0 9
6 20 6 11 13 20 16 20 2 0 0 -9 -6 -20z m157 -12 c-3 -8 -6 -5 -6 6 -1 11 2
17 5 13 3 -3 4 -12 1 -19z m-758 -65 c-1 -5 -1 -33 0 -64 1 -52 3 -57 26 -62
28 -5 55 22 55 56 0 16 2 16 14 5 8 -8 16 -23 18 -34 2 -10 8 -19 13 -19 6 0
15 -4 22 -8 7 -4 16 0 22 10 9 16 10 14 11 -9 0 -16 -5 -28 -11 -28 -16 0 42
-50 60 -51 12 0 11 -3 -4 -9 l-20 -9 20 0 c17 -1 17 -3 5 -11 -10 -6 -11 -10
-2 -10 6 0 12 -4 12 -10 0 -12 -26 -14 -33 -2 -2 4 -2 1 -1 -5 2 -7 -1 -13 -6
-13 -6 0 -10 -7 -10 -16 0 -10 -6 -14 -14 -11 -11 4 -14 -2 -11 -29 2 -19 8
-41 15 -48 8 -10 8 -16 0 -21 -6 -4 -10 -3 -9 2 1 4 -3 19 -9 33 -6 14 -11 21
-12 15 0 -5 -5 -3 -10 5 -8 12 -12 13 -19 2 -6 -10 -10 -7 -13 11 -4 19 -1 24
11 21 9 -3 -2 4 -24 14 -22 11 -42 16 -45 12 -7 -10 -43 -9 -57 3 -30 23 -12
32 60 32 85 -1 98 2 90 22 -4 11 -8 12 -13 3 -7 -11 -54 -14 -133 -11 -8 1
-34 15 -59 31 -46 31 -78 79 -78 119 0 36 17 23 24 -18 4 -25 18 -53 40 -75
28 -30 40 -36 75 -36 45 0 81 14 81 31 0 6 -8 6 -21 -2 -12 -6 -30 -8 -42 -5
-12 3 -28 0 -36 -7 -12 -10 -13 -9 -6 3 4 8 5 12 0 8 -9 -9 -45 9 -45 22 0 6
-9 19 -20 30 -11 11 -20 33 -20 50 0 24 9 36 42 60 39 29 69 39 67 23z m1316
-93 c3 -5 1 -10 -4 -10 -6 0 -11 5 -11 10 0 6 2 10 4 10 3 0 8 -4 11 -10z
m-707 -61 c-3 -8 -7 -3 -11 10 -4 17 -3 21 5 13 5 -5 8 -16 6 -23z m-98 1 c0
-5 -5 -10 -11 -10 -5 0 -7 5 -4 10 3 6 8 10 11 10 2 0 4 -4 4 -10z m-40 -10
c0 -5 -4 -10 -10 -10 -5 0 -10 5 -10 10 0 6 5 10 10 10 6 0 10 -4 10 -10z
m-490 -124 c0 -2 -7 -7 -16 -10 -8 -3 -12 -2 -9 4 6 10 25 14 25 6z m230 -27
c0 -5 5 -7 12 -3 7 4 8 3 4 -4 -4 -6 -13 -9 -21 -5 -17 6 -20 23 -5 23 6 0 10
-5 10 -11z m369 -35 c-6 -16 -13 -24 -16 -18 -2 6 2 24 8 40 6 16 13 24 16 18
2 -6 -2 -24 -8 -40z m-22 -76 c-3 -7 -5 -2 -5 12 0 14 2 19 5 13 2 -7 2 -19 0
-25z m-361 5 c-2 -10 3 -23 11 -28 13 -10 -2 -12 -49 -6 -13 2 5 40 21 44 9 3
17 5 18 6 1 0 0 -7 -1 -16z m284 -13 c0 -5 -4 -10 -10 -10 -5 0 -10 5 -10 10
0 6 5 10 10 10 6 0 10 -4 10 -10z m-276 -46 c3 -8 2 -12 -4 -9 -6 3 -10 10
-10 16 0 14 7 11 14 -7z m4556 -119 c0 -3 -10 -16 -21 -28 -18 -18 -21 -19
-15 -4 3 10 6 23 6 28 0 5 7 9 15 9 8 0 15 -2 15 -5z m-691 -92 c13 -34 22
-301 10 -309 -5 -3 -9 7 -9 21 0 14 -7 40 -16 57 -38 73 -62 204 -45 237 16
30 46 26 60 -6z m781 -13 c0 -5 -3 -15 -6 -24 -9 -24 -32 -8 -26 19 2 15 9 22
18 18 8 -3 14 -9 14 -13z m-1355 -11 c5 -5 5 -9 0 -9 -5 0 1 -7 13 -16 15 -10
32 -13 52 -9 25 5 30 3 31 -12 2 -89 6 -100 42 -136 44 -45 59 -46 74 -7 8 22
18 30 36 30 44 0 57 -10 57 -44 0 -47 -36 -76 -122 -98 -40 -10 -75 -23 -79
-30 -4 -6 -22 -13 -41 -14 -18 -2 -61 -6 -95 -10 l-63 -6 0 28 c-1 49 -46 85
-65 53 -5 -7 -12 -5 -23 5 -10 8 -24 16 -32 18 -23 5 -39 24 -42 51 -2 13 -10
32 -17 41 -20 24 -16 96 6 96 24 0 28 -2 25 -11 -3 -14 27 4 59 34 27 25 58
41 72 39 4 -1 7 3 7 9 0 6 7 9 15 6 8 -4 17 -2 20 3 7 11 54 3 70 -11z m-412
-39 c-7 -28 -22 -35 -30 -15 -3 10 0 21 8 26 22 14 28 11 22 -11z m-2298 -80
c4 -6 3 -9 -2 -8 -4 1 -19 -4 -33 -11 l-25 -14 19 22 c21 23 32 26 41 11z
m-28 -45 c0 -8 -4 -12 -9 -9 -5 3 -6 10 -3 15 9 13 12 11 12 -6z m-21 -42
c-10 -10 -19 5 -10 18 6 11 8 11 12 0 2 -7 1 -15 -2 -18z m52 -20 c-16 -4 -16
-6 -3 -20 9 -8 14 -17 11 -20 -2 -3 -13 4 -25 16 -20 20 -14 30 19 29 10 0 9
-2 -2 -5z m3322 -166 c0 -40 17 -113 31 -132 4 -5 10 -27 14 -47 4 -21 11 -36
15 -33 8 5 20 -43 20 -81 0 -13 4 -24 9 -24 16 0 17 -51 4 -105 -7 -27 -13
-62 -13 -77 0 -16 -4 -28 -9 -28 -5 0 -12 -10 -15 -22 -3 -13 -15 -34 -26 -48
-17 -21 -21 -23 -30 -10 -6 8 -8 31 -4 50 3 19 5 100 3 180 -1 80 -2 173 -1
208 1 35 -2 62 -8 62 -6 0 -10 9 -10 19 0 11 -4 22 -9 25 -16 10 -21 69 -9 97
17 38 38 19 38 -34z m-1790 6 c0 -7 6 -13 13 -14 6 0 3 -4 -8 -8 -14 -6 -22
-4 -27 8 -10 24 -9 28 7 28 8 0 15 -6 15 -14z m-1785 -13 c3 -5 1 -10 -4 -10
-6 0 -11 5 -11 10 0 6 2 10 4 10 3 0 8 -4 11 -10z m1805 -32 c0 -10 2 -10 8 0
6 9 24 -2 64 -42 31 -30 67 -57 79 -61 34 -10 49 -25 49 -45 0 -27 -72 -37
-105 -16 -13 9 -31 16 -40 16 -9 0 -18 12 -22 31 -4 19 -10 28 -19 25 -8 -3
-11 0 -7 10 3 8 -1 14 -11 14 -12 0 -16 10 -16 40 0 22 5 40 10 40 6 0 10 -6
10 -12z m-119 -109 c21 -68 90 -97 165 -69 16 6 31 7 38 1 6 -5 26 -12 44 -16
17 -3 32 -11 32 -16 0 -12 -27 -12 -35 1 -11 17 -23 11 -29 -15 -3 -13 -15
-29 -26 -35 -11 -6 -20 -15 -20 -21 0 -6 -7 -26 -16 -45 l-16 -34 -78 3 c-78
4 -123 21 -143 54 -4 7 -15 13 -22 13 -8 0 -15 4 -15 8 0 15 -54 12 -72 -5
-26 -23 -22 -2 8 43 26 39 153 171 166 173 4 1 13 -17 19 -40z m-1199 -4 c13
-29 12 -30 -24 -39 -17 -4 -28 -2 -28 4 0 5 10 10 23 11 12 0 16 3 9 6 -10 4
-10 8 0 21 11 13 10 15 -5 9 -11 -4 -16 -3 -12 3 11 17 25 11 37 -15z m1632
-40 c3 -9 0 -15 -9 -15 -8 0 -15 7 -15 15 0 8 4 15 9 15 5 0 11 -7 15 -15z
m-1720 -11 c5 -14 4 -15 -9 -4 -17 14 -19 20 -6 20 5 0 12 -7 15 -16z m-181
-28 c6 -16 -19 -43 -30 -32 -3 3 -1 6 6 6 7 0 10 4 6 10 -7 11 -35 2 -32 -12
3 -15 -40 -41 -48 -29 -3 6 1 11 9 11 9 0 16 6 16 13 0 11 46 46 61 47 4 0 9
-6 12 -14z m-9 -71 c-4 -8 -16 -15 -28 -16 -20 0 -20 -1 -1 -9 13 -6 15 -9 5
-9 -8 0 -23 6 -33 13 -16 12 -15 14 9 14 14 0 31 5 37 11 15 15 17 14 11 -4z
m1249 -75 c3 -11 1 -23 -4 -26 -5 -3 -9 6 -9 20 0 31 6 34 13 6z m444 -42 c-3
-7 -5 -2 -5 12 0 14 2 19 5 13 2 -7 2 -19 0 -25z m423 7 c-7 -9 -15 -13 -17
-11 -7 7 7 26 19 26 6 0 6 -6 -2 -15z m-438 -28 c1 -15 6 -27 10 -27 4 0 8 -4
8 -10 0 -5 -12 -10 -26 -10 -20 0 -25 4 -20 16 3 9 9 27 12 40 8 30 13 27 16
-9z m-1309 -18 c5 -3 2 -9 -7 -12 -12 -5 -16 0 -16 15 0 12 3 17 8 12 4 -5 11
-12 15 -15z m1427 -28 c0 -6 -4 -12 -10 -16 -5 -3 -7 -12 -3 -20 3 -9 -1 -15
-8 -15 -9 -1 -6 -7 8 -19 24 -20 16 -45 -13 -39 -23 4 -53 60 -36 66 7 2 12
13 12 23 0 11 4 18 9 14 5 -3 12 -1 16 5 8 13 25 13 25 1z m-400 -49 c0 -8 12
-23 26 -34 l25 -21 -43 -19 c-23 -10 -46 -24 -50 -31 -5 -8 -8 -6 -8 6 0 9 -4
17 -10 17 -13 0 -13 32 2 79 11 35 14 38 35 28 13 -6 23 -17 23 -25z m-760 6
c0 -6 -6 -5 -15 2 -8 7 -15 14 -15 16 0 2 7 1 15 -2 8 -4 15 -11 15 -16z m238
-78 c17 -68 17 -76 3 -87 -9 -6 -20 -9 -24 -6 -5 3 -4 9 3 13 9 5 9 9 1 14
-12 8 -44 -18 -34 -28 4 -3 1 -6 -6 -6 -9 0 -9 -5 -1 -20 8 -15 5 -24 -17 -45
l-28 -25 32 0 c18 0 33 6 37 15 3 8 11 15 17 15 8 0 8 -4 -1 -15 -10 -12 -9
-15 8 -15 25 0 34 21 14 36 -16 11 -8 54 9 54 6 0 7 -9 4 -20 -4 -14 -2 -20 8
-20 20 0 49 -75 41 -106 -4 -14 -16 -27 -31 -30 -13 -4 -22 -9 -19 -11 18 -18
-83 -59 -103 -42 -7 6 -8 5 -2 -2 16 -19 2 -36 -25 -31 -17 3 -24 0 -24 -12 0
-12 -10 -16 -45 -16 -34 0 -43 3 -39 14 3 8 21 17 40 21 30 5 33 9 24 21 -10
11 -8 14 9 14 14 0 20 4 15 12 -5 7 -2 9 8 5 9 -3 26 2 39 10 12 9 19 12 16 6
-5 -7 1 -9 15 -5 14 3 17 7 9 10 -8 3 -3 11 16 23 l28 19 -42 0 c-23 0 -48 -6
-55 -13 -20 -21 -56 -27 -62 -11 -5 13 20 34 36 31 3 -1 10 2 15 6 4 5 -17 6
-47 3 -30 -3 -49 -3 -42 0 6 3 12 12 12 19 0 8 8 21 17 31 16 16 16 16 -6 9
-23 -7 -24 -6 -18 30 7 42 44 88 65 80 7 -2 10 0 7 5 -3 6 4 10 15 10 17 0 21
-4 15 -17 -5 -14 -3 -15 6 -6 6 6 18 9 27 6 10 -4 13 -2 8 5 -4 6 -2 21 4 33
7 12 12 41 13 65 0 60 13 44 35 -46z m-95 41 c-3 -11 -11 -22 -19 -25 -11 -4
-11 0 -2 19 13 30 28 33 21 6z m942 -1 c3 -5 1 -10 -4 -10 -6 0 -11 5 -11 10
0 6 2 10 4 10 3 0 8 -4 11 -10z m1763 -43 c-6 -19 -19 -44 -30 -58 -11 -13
-17 -19 -14 -12 4 6 2 14 -3 17 -17 11 28 80 56 86 0 0 -3 -15 -9 -33z m-2748
3 c0 -5 -5 -10 -11 -10 -5 0 -7 5 -4 10 3 6 8 10 11 10 2 0 4 -4 4 -10z m57
-15 c0 -8 -6 -15 -14 -15 -17 0 -17 17 0 23 6 3 12 6 13 6 0 1 1 -6 1 -14z
m693 -25 c-20 -13 -40 -13 -40 0 0 6 12 10 28 10 21 0 24 -2 12 -10z m-1076
-32 c-3 -4 -11 -8 -17 -7 -9 0 -9 2 0 5 7 3 9 13 6 22 -4 14 -3 14 5 2 6 -8 8
-18 6 -22z m1011 23 c7 -12 -8 -22 -70 -43 -77 -26 -105 -29 -105 -12 0 30
159 80 175 55z m-1030 -71 c3 -5 -1 -10 -9 -10 -9 0 -16 5 -16 10 0 6 4 10 9
10 6 0 13 -4 16 -10z m-445 -30 c-8 -5 -19 -10 -25 -10 -5 0 -3 5 5 10 8 5 20
10 25 10 6 0 3 -5 -5 -10z m468 -9 c11 -7 11 -9 -1 -14 -16 -6 -27 0 -27 15 0
10 11 10 28 -1z m-21 -44 c4 -6 1 -7 -7 -2 -7 4 -15 2 -20 -4 -5 -9 -10 -8
-19 2 -9 12 -7 15 14 15 14 0 28 -5 32 -11z m-27 -118 c0 5 7 8 15 5 12 -5 10
-10 -9 -25 -29 -23 -44 -23 -71 -3 l-20 16 20 -4 c15 -2 19 2 17 15 -3 17 -2
17 22 1 15 -9 26 -12 26 -5z m-71 -51 c7 -11 10 -22 7 -25 -9 -9 -34 5 -45 24
-14 27 21 28 38 1z m91 -54 c0 -24 -17 -15 -22 11 -4 20 -3 23 8 14 8 -6 14
-18 14 -25z m227 30 c-3 -3 -12 -4 -19 -1 -8 3 -5 6 6 6 11 1 17 -2 13 -5z
m-249 -98 c-10 -7 -15 -16 -11 -20 4 -4 -1 -4 -11 0 -17 6 -16 8 5 20 31 17
39 17 17 0z m267 -95 c3 -5 -2 -17 -11 -25 -10 -10 -11 -16 -3 -16 9 0 9 -3
-1 -15 -6 -8 -12 -31 -12 -52 0 -74 -28 -116 -113 -168 -18 -11 -52 -33 -76
-50 -37 -26 -51 -30 -108 -30 l-65 0 -7 35 c-4 20 -3 40 3 47 5 7 9 22 8 35
-1 13 -2 28 -1 35 2 21 70 52 127 57 31 3 63 11 71 18 21 17 43 19 43 2 0 -8
4 -14 9 -14 16 0 28 25 28 57 0 19 8 42 19 54 29 33 77 49 89 30z m79 -10 c3
-4 -4 -17 -16 -27 -20 -18 -21 -18 -15 -1 4 10 7 23 7 28 0 11 17 12 24 0z
m421 -311 c3 -5 1 -10 -4 -10 -6 0 -11 5 -11 10 0 6 2 10 4 10 3 0 8 -4 11
-10z m-705 -34 c0 -2 -7 -7 -16 -10 -8 -3 -12 -2 -9 4 6 10 25 14 25 6z
m-1015 -90 c28 -18 107 -36 154 -36 23 0 41 -4 41 -9 0 -13 -57 -31 -99 -31
-27 -1 -32 -3 -20 -10 11 -6 15 -18 11 -35 -4 -25 -3 -26 32 -20 37 7 46 -1
24 -23 -8 -8 -8 -12 -1 -12 8 0 8 -7 0 -25 -7 -14 -17 -25 -24 -25 -11 0 -6
-40 6 -40 3 0 12 -4 20 -9 11 -7 9 -13 -8 -30 -12 -12 -26 -19 -31 -16 -6 3
-7 -1 -4 -9 4 -10 1 -16 -9 -16 -19 0 -35 20 -41 53 -2 15 -7 31 -10 36 -4 5
-9 40 -12 78 -3 37 -7 74 -9 80 -2 7 4 17 13 22 16 10 16 10 0 11 -19 0 -98
66 -98 82 0 11 35 2 65 -16z m350 -37 c3 -4 -24 -9 -60 -11 -48 -2 -65 0 -65
10 0 9 17 12 60 11 34 -1 63 -5 65 -10z m195 1 c-20 -13 -143 -13 -135 0 3 6
39 10 78 10 50 0 67 -3 57 -10z m114 4 c23 -9 -38 -80 -81 -95 -51 -16 -50 -5
1 27 25 16 49 39 52 52 7 25 6 24 28 16z m-141 -101 c-7 -2 -21 -2 -30 0 -10
3 -4 5 12 5 17 0 24 -2 18 -5z m1121 -268 c3 -8 1 -15 -3 -15 -5 0 -11 7 -15
15 -3 8 -1 15 3 15 5 0 11 -7 15 -15z m26 -72 c0 -13 -3 -13 -15 -3 -8 7 -15
19 -15 27 0 13 3 13 15 3 8 -7 15 -19 15 -27z m27 -105 c-3 -8 -6 -5 -6 6 -1
11 2 17 5 13 3 -3 4 -12 1 -19z m73 -229 c0 -5 -4 -9 -10 -9 -5 0 -10 7 -10
16 0 8 5 12 10 9 6 -3 10 -10 10 -16z"/>
<path d="M3732 5895 c0 -16 2 -22 5 -12 2 9 2 23 0 30 -3 6 -5 -1 -5 -18z"/>
<path d="M4227 4582 c-10 -10 -14 -21 -11 -25 10 -10 44 12 44 28 0 20 -13 19
-33 -3z"/>
<path d="M3690 4091 c-13 -25 -13 -51 0 -51 6 0 10 4 10 9 0 5 9 11 21 14 17
5 19 9 9 26 -13 26 -26 27 -40 2z"/>
<path d="M4007 3234 c-3 -4 1 -16 9 -28 8 -13 12 -25 9 -28 -3 -3 7 -19 22
-36 35 -37 52 -62 60 -85 6 -21 30 -16 24 4 -3 8 -6 39 -7 69 -2 43 -6 55 -18
54 -9 -1 -16 2 -16 7 0 5 -6 9 -13 9 -8 0 -22 9 -32 20 -19 21 -28 24 -38 14z"/>
<path d="M3780 3091 c0 -15 24 -28 70 -39 25 -5 50 -11 55 -13 11 -4 15 3 15
26 0 9 -9 15 -24 15 -14 0 -28 5 -31 10 -8 12 -85 13 -85 1z"/>
<path d="M3470 2470 c0 -6 -11 -8 -25 -4 -33 8 -31 -4 5 -40 l30 -29 0 41 c0
23 -2 42 -5 42 -3 0 -5 -5 -5 -10z"/>
<path d="M3576 2400 c17 -32 34 -40 34 -15 0 9 -7 18 -15 21 -8 4 -12 10 -9
15 3 5 -1 9 -10 9 -13 0 -13 -4 0 -30z"/>
<path d="M4616 6378 c-3 -13 -10 -45 -15 -73 -6 -27 -13 -60 -17 -72 -5 -20
-2 -23 19 -23 18 0 34 11 53 35 14 19 67 62 118 95 l91 60 -122 0 c-119 0
-123 -1 -127 -22z"/>
<path d="M5212 6380 c-10 -17 -10 -21 3 -26 8 -4 15 -12 15 -20 0 -8 7 -14 15
-14 8 0 15 -5 15 -11 0 -6 7 -9 15 -5 8 3 15 0 15 -7 0 -8 4 -6 10 3 8 12 10
10 10 -8 0 -13 -4 -20 -10 -17 -6 4 -10 -5 -10 -20 0 -14 -4 -24 -9 -21 -5 4
-4 -8 2 -25 11 -29 12 -30 17 -7 5 18 12 22 34 20 17 -2 26 0 22 6 -11 17 26
23 50 7 17 -11 24 -12 27 -2 3 6 6 4 6 -7 1 -12 6 -16 16 -12 9 3 18 -1 21 -9
10 -24 67 -19 93 9 20 21 30 24 74 20 29 -2 62 -7 75 -9 14 -3 22 -1 22 7 0 8
3 9 8 3 4 -6 16 -10 27 -10 11 0 31 -6 44 -13 21 -13 26 -13 36 1 7 10 25 15
54 14 37 -2 43 -5 48 -28 5 -29 32 -34 49 -11 8 11 20 13 42 9 20 -4 32 -2 35
6 2 7 7 9 11 6 3 -3 -10 -24 -30 -47 -40 -47 -42 -79 -4 -74 14 1 28 9 32 16
13 23 58 -3 58 -34 1 -22 2 -23 11 -7 5 9 15 17 20 17 6 0 7 -4 4 -10 -3 -5 1
-10 10 -10 9 0 13 5 10 10 -4 6 23 10 73 10 79 0 80 0 88 -27 5 -21 8 -24 11
-10 3 9 9 15 14 12 5 -4 9 64 9 169 0 167 -1 176 -19 176 -13 0 -21 -9 -26
-30 -9 -43 -34 -88 -52 -99 -15 -8 -15 -10 0 -26 37 -36 23 -44 -91 -48 -65
-3 -87 0 -101 12 -15 13 -16 18 -5 29 7 6 24 12 36 12 30 0 66 38 44 46 -13 5
-13 12 0 52 7 26 14 48 14 50 0 1 -219 2 -488 2 -478 0 -487 0 -500 -20z m773
-139 c-3 -5 2 -11 10 -13 13 -2 12 -6 -5 -20 -19 -17 -20 -17 -20 5 0 13 3 27
7 30 9 10 15 8 8 -2z"/>
<path d="M5370 6230 c0 -5 5 -10 10 -10 6 0 10 5 10 10 0 6 -4 10 -10 10 -5 0
-10 -4 -10 -10z"/>
<path d="M6285 6040 c-3 -5 -12 -7 -20 -3 -8 3 -15 0 -15 -6 0 -17 37 -13 44
4 6 17 0 20 -9 5z"/>
<path d="M6209 6021 c11 -7 9 -10 -10 -14 -19 -4 -18 -5 5 -4 35 2 49 27 14
27 -17 0 -20 -3 -9 -9z"/>
<path d="M6387 5986 c-4 -10 -5 -21 -2 -24 9 -9 17 6 13 25 -3 17 -4 17 -11
-1z"/>
<path d="M930 5666 c-7 -18 -5 -33 5 -53 11 -20 15 -59 14 -135 0 -58 4 -115
9 -125 10 -16 12 -15 22 11 10 28 12 75 7 246 -2 69 -4 75 -24 78 -17 3 -26
-3 -33 -22z"/>
<path d="M4094 5675 c11 -8 24 -15 30 -15 5 0 1 7 -10 15 -10 8 -23 14 -29 14
-5 0 -1 -6 9 -14z"/>
<path d="M1190 5500 c0 -16 2 -30 4 -30 2 0 9 14 15 30 8 24 7 30 -5 30 -9 0
-14 -10 -14 -30z"/>
<path d="M428 5393 c6 -2 18 -2 25 0 6 3 1 5 -13 5 -14 0 -19 -2 -12 -5z"/>
<path d="M4375 5389 c-10 -15 3 -25 16 -12 7 7 7 13 1 17 -6 3 -14 1 -17 -5z"/>
<path d="M376 5322 c-4 -7 -11 -10 -16 -7 -4 3 -10 -2 -14 -10 -3 -10 3 -17
20 -21 32 -8 40 0 27 28 -6 15 -12 18 -17 10z"/>
<path d="M4461 5314 c0 -11 3 -14 6 -6 3 7 2 16 -1 19 -3 4 -6 -2 -5 -13z"/>
<path d="M1152 5198 c-20 -20 -14 -76 8 -90 22 -14 27 -54 8 -61 -7 -2 -10 -7
-7 -11 7 -8 59 39 59 54 0 5 4 10 9 10 5 0 11 16 13 35 3 28 0 38 -19 50 -13
9 -23 13 -23 10 0 -3 -8 -1 -18 4 -13 7 -23 6 -30 -1z"/>
<path d="M0 5023 l0 -183 25 12 c46 21 52 1 60 -187 4 -93 8 -172 10 -175 2
-3 6 -45 10 -95 3 -49 9 -98 12 -108 6 -21 -22 -67 -41 -67 -24 0 -65 40 -69
68 -2 15 -5 -944 -6 -2130 l-1 -2158 219 0 219 0 12 68 c21 118 38 294 39 406
1 60 4 112 6 115 2 4 15 84 29 179 27 182 78 384 136 546 11 32 19 61 16 64
-3 3 -1 11 5 18 6 8 9 20 6 29 -9 22 7 26 24 7 27 -31 79 -110 79 -120 0 -10
44 -32 63 -32 7 0 13 -9 14 -21 3 -30 22 -49 49 -49 25 0 27 6 28 85 1 25 7
32 35 41 40 13 71 8 71 -12 0 -8 6 -14 14 -14 8 0 16 -3 18 -7 2 -5 18 -21 37
-36 39 -32 58 -27 20 6 -14 12 -19 18 -12 13 20 -13 15 6 -12 46 -14 20 -25
43 -25 50 0 22 22 38 50 38 15 0 49 11 76 25 27 14 58 25 70 25 34 0 45 19 23
41 -10 10 -26 19 -34 19 -9 0 -15 9 -15 25 0 14 -4 25 -10 25 -5 0 -7 7 -4 15
4 8 -1 17 -9 21 -9 3 -13 12 -10 20 3 8 -3 17 -12 21 -17 6 -17 7 1 20 17 12
16 13 -8 13 -15 0 -29 -6 -31 -12 -3 -7 -4 0 -4 16 2 35 -20 47 -26 14 -4 -20
-4 -20 -6 5 0 15 -6 27 -13 27 -6 0 -9 3 -5 6 3 3 -5 18 -19 33 -26 27 -56 77
-60 98 -2 14 -36 60 -71 99 -13 14 -23 36 -23 49 0 14 -4 25 -10 25 -5 0 -10
7 -10 15 0 9 -24 39 -53 68 -30 29 -52 58 -49 65 2 6 -1 12 -6 12 -14 0 -10
74 6 92 7 9 10 23 6 32 -3 9 -1 22 4 29 6 7 11 22 11 32 0 50 28 187 40 194 7
5 12 11 12 15 -4 31 0 38 14 26 10 -9 15 -9 15 -1 0 19 15 12 33 -16 l18 -28
-6 28 c-7 35 -2 34 35 -4 30 -32 38 -45 21 -35 -5 4 -8 -6 -6 -21 1 -15 8 -29
15 -31 7 -3 21 -13 31 -23 11 -11 19 -15 19 -11 0 4 -5 13 -12 20 -9 9 -9 12
-1 12 7 0 18 -9 26 -21 11 -15 17 -17 22 -8 5 7 0 18 -10 26 -17 12 -17 13 -2
13 9 0 17 6 18 13 1 6 2 21 3 32 0 11 -11 30 -26 43 -15 13 -27 26 -26 30 4
12 -54 122 -63 122 -5 0 -9 6 -9 14 0 7 -12 25 -26 40 -15 14 -23 26 -19 26 4
0 2 7 -5 15 -6 8 -12 30 -12 50 0 19 -4 38 -9 41 -5 3 -7 10 -4 15 4 5 1 9 -5
9 -7 0 -10 6 -7 14 3 7 0 19 -6 25 -7 7 -8 11 0 11 7 0 11 35 11 95 1 53 3 99
6 104 3 4 7 50 10 101 4 52 9 104 12 115 14 53 27 73 40 68 8 -3 14 1 14 10 0
8 6 18 13 20 6 3 1 6 -13 6 -19 1 -22 3 -10 10 8 6 18 7 22 5 13 -8 9 5 -8 31
-9 13 -13 29 -9 35 3 5 2 10 -3 10 -5 0 -12 14 -16 30 -3 18 -12 30 -22 30
-16 0 -16 38 1 175 4 36 3 46 -4 35 -9 -12 -11 -9 -11 13 0 15 -5 27 -11 27
-5 0 -7 -4 -4 -10 3 -5 1 -10 -5 -10 -7 0 -9 -7 -6 -16 3 -9 2 -12 -5 -9 -18
12 -40 -17 -37 -51 1 -18 -1 -36 -5 -40 -13 -13 -6 101 8 141 8 22 15 47 15
56 0 9 7 22 15 29 8 6 14 15 13 18 -3 12 25 62 34 62 5 0 7 8 3 19 -4 13 5 29
29 53 25 25 37 48 42 78 4 23 13 44 20 47 7 2 10 11 7 19 -3 8 0 14 7 14 7 0
24 13 38 28 15 16 41 37 59 47 18 10 30 22 27 27 -3 4 0 8 6 8 6 0 8 4 5 10
-3 5 3 15 15 22 21 14 27 38 9 38 -6 0 -23 -9 -38 -19 -15 -11 -38 -22 -52
-24 -35 -6 -71 -23 -94 -44 -50 -47 -95 -71 -153 -83 -34 -7 -65 -10 -68 -7
-4 3 -10 41 -14 84 -13 119 -22 207 -24 218 -2 15 -26 24 -68 24 -43 1 -52 -8
-39 -41 6 -12 10 -18 10 -11 1 7 8 10 18 6 12 -5 14 -3 8 7 -6 10 -4 12 10 6
11 -4 22 -2 26 6 5 7 5 -3 2 -22 -4 -19 -6 -82 -4 -138 1 -71 -1 -102 -8 -97
-6 3 -11 -1 -11 -9 0 -9 -4 -16 -10 -16 -5 0 -10 -25 -10 -55 0 -50 -2 -55
-25 -61 -14 -3 -25 -12 -25 -19 0 -7 -3 -20 -6 -28 -3 -9 3 -16 16 -20 16 -4
23 1 30 19 9 23 50 41 68 30 6 -3 8 -16 5 -29 -4 -18 -3 -20 7 -7 10 13 11 12
5 -5 -4 -11 -8 -31 -10 -45 -2 -14 -20 -52 -39 -84 -20 -33 -36 -65 -36 -71 0
-6 -9 -28 -20 -50 -11 -21 -18 -40 -16 -43 3 -2 -4 -20 -15 -39 -11 -20 -22
-58 -24 -85 -2 -27 -6 -52 -9 -55 -3 -3 -3 -23 0 -43 4 -23 2 -40 -5 -44 -16
-10 -4 -26 20 -26 22 0 25 -20 6 -39 -9 -10 -9 -15 -1 -18 8 -3 11 -27 8 -74
-4 -77 -8 -89 -29 -89 -20 0 -33 30 -28 63 2 15 -1 27 -7 27 -8 0 -15 -45 -11
-72 0 -4 4 -40 7 -80 3 -40 8 -76 10 -80 3 -5 7 -17 9 -28 2 -10 10 -34 18
-52 8 -18 22 -55 31 -81 8 -27 29 -71 46 -98 16 -27 30 -51 30 -54 0 -3 23
-33 50 -67 28 -34 50 -70 50 -80 0 -10 5 -18 10 -18 6 0 10 -9 10 -20 0 -11
-4 -20 -10 -20 -5 0 -10 4 -10 9 0 5 -5 22 -12 38 -6 15 -11 31 -10 36 1 4 -4
7 -11 7 -7 0 -19 15 -26 33 -10 24 -15 28 -18 15 -4 -15 -7 -16 -17 -5 -7 7
-15 19 -19 27 -3 8 -6 -1 -8 -20 -1 -29 -3 -31 -7 -10 -4 21 -7 16 -18 -27 -8
-33 -10 -62 -5 -81 8 -28 7 -74 -3 -149 -2 -17 2 -53 10 -79 7 -25 12 -50 9
-54 -3 -5 -7 -39 -9 -77 -2 -37 -7 -76 -11 -87 -5 -11 -3 -21 5 -26 9 -6 10
-12 1 -26 -10 -18 -10 -18 -11 1 l-1 20 -8 -20 c-5 -11 -7 -23 -5 -26 2 -4 -9
-31 -26 -60 -16 -30 -38 -71 -50 -91 -11 -21 -33 -45 -48 -55 -15 -9 -33 -23
-39 -32 -11 -13 -13 -11 -13 9 0 15 15 37 38 59 22 20 59 63 83 95 l44 60 -3
180 c-2 176 -12 254 -49 383 -8 29 -19 55 -24 58 -5 4 -9 15 -9 27 0 14 -5 18
-16 14 -8 -3 -13 -2 -10 3 3 5 -6 11 -20 14 -20 4 -27 -1 -35 -22 -13 -33 -28
-42 -58 -34 -23 6 -24 4 -18 -38 3 -24 9 -54 13 -66 13 -45 -14 -22 -36 29
-21 49 -22 61 -16 198 8 156 19 239 42 310 9 25 13 59 10 76 -4 18 0 43 8 60
8 16 20 65 27 109 7 44 18 89 25 100 23 36 36 153 24 207 -7 26 -15 48 -19 48
-14 0 -35 116 -40 225 -1 15 -3 17 -10 7 -7 -11 -9 -11 -14 2 -11 29 -27 17
-27 -21 0 -20 7 -75 14 -122 8 -47 20 -120 27 -161 6 -41 15 -97 20 -124 5
-28 6 -52 4 -54 -8 -8 -36 20 -32 32 2 6 1 21 -4 32 -4 12 -8 52 -10 90 -1 38
-6 74 -10 80 -5 6 -12 44 -15 85 -4 41 -10 79 -14 84 -12 17 -33 137 -49 285
-6 58 -16 125 -22 149 -7 31 -7 47 1 55 16 16 30 -11 30 -59 0 -22 5 -47 10
-55 9 -13 11 -13 20 0 14 22 12 59 -4 76 -10 9 -13 26 -9 47 3 18 -2 57 -11
87 -16 54 -16 55 10 105 17 32 38 56 61 68 40 20 51 21 50 5 -1 -37 4 -58 14
-58 8 0 10 16 6 53 -5 44 -12 57 -42 83 -31 25 -101 54 -134 54 -13 0 0 -93
15 -111 19 -22 17 -46 -5 -75 -16 -20 -18 -31 -10 -60 6 -19 9 -47 7 -62 -4
-34 -32 -36 -36 -2 -2 14 -7 30 -12 35 -4 6 -11 31 -14 57 -4 26 -11 50 -17
53 -5 4 -9 17 -9 31 0 14 -9 45 -20 70 -12 25 -24 73 -28 108 -7 56 -13 69
-58 119 -27 31 -52 57 -57 57 -4 0 -16 15 -27 33 l-20 32 0 -182z m947 -1175
c-3 -8 -6 -5 -6 6 -1 11 2 17 5 13 3 -3 4 -12 1 -19z m-70 -80 c-3 -7 -5 -2
-5 12 0 14 2 19 5 13 2 -7 2 -19 0 -25z m103 -158 c0 -5 -5 -10 -11 -10 -5 0
-7 5 -4 10 3 6 8 10 11 10 2 0 4 -4 4 -10z m-111 -245 c-6 -19 -7 -40 -4 -45
3 -5 -2 -24 -11 -42 -16 -30 -18 -31 -25 -13 -14 37 -9 82 12 109 28 36 39 33
28 -9z m-252 -47 c-3 -8 -6 -5 -6 6 -1 11 2 17 5 13 3 -3 4 -12 1 -19z m87
-594 c3 -8 2 -12 -4 -9 -6 3 -10 10 -10 16 0 14 7 11 14 -7z m-289 -34 c3 -5
1 -10 -4 -10 -6 0 -11 5 -11 10 0 6 2 10 4 10 3 0 8 -4 11 -10z m650 -141 c12
-18 -3 -22 -20 -5 -14 14 -14 16 -1 16 8 0 18 -5 21 -11z m-335 -590 c0 -6 -4
-7 -10 -4 -5 3 -10 11 -10 16 0 6 5 7 10 4 6 -3 10 -11 10 -16z m-248 -18 c17
-25 15 -47 -3 -36 -5 4 -16 20 -24 36 -19 37 1 37 27 0z m288 -15 c0 -3 -4 -8
-10 -11 -5 -3 -10 -1 -10 4 0 6 5 11 10 11 6 0 10 -2 10 -4z m72 -105 c21 -25
78 -125 78 -135 0 -6 -11 6 -25 26 -14 20 -25 40 -25 44 0 3 -17 27 -39 53
-50 60 -76 112 -31 61 17 -19 36 -41 42 -49z m-406 41 c6 -4 25 -36 42 -72 20
-42 40 -69 57 -77 17 -8 25 -8 25 0 0 6 2 8 5 5 3 -2 -2 -19 -11 -36 -15 -31
-33 -36 -60 -19 -21 12 -77 131 -76 159 1 28 -13 39 -20 16 -2 -6 -9 -8 -16
-4 -9 5 -9 10 1 21 13 16 36 19 53 7z m254 -12 c0 -5 -4 -10 -10 -10 -5 0 -10
5 -10 10 0 6 5 10 10 10 6 0 10 -4 10 -10z m-269 -96 c24 -52 18 -68 -11 -34
-18 21 -29 80 -14 80 3 0 14 -21 25 -46z m344 -5 c4 -11 10 -17 14 -15 4 3 7
-3 7 -12 1 -9 5 -26 9 -37 5 -11 -6 -3 -23 19 -18 21 -32 42 -32 47 0 4 -3 16
-7 26 -6 16 -5 16 10 5 9 -8 19 -22 22 -33z m59 18 c16 -11 17 -17 7 -36 -14
-26 -31 -20 -24 9 4 14 0 20 -10 20 -9 0 -19 5 -22 10 -9 15 28 12 49 -3z
m-95 -26 c2 -1 -2 -7 -8 -15 -9 -10 -8 -16 3 -26 9 -6 20 -9 26 -5 5 3 10 1
10 -4 0 -6 -12 -11 -26 -11 -17 0 -28 6 -31 20 -6 23 -14 25 -32 8 -10 -11
-15 -9 -27 6 -18 25 -5 34 44 30 20 -2 39 -3 41 -3z m-89 -42 c12 -23 41 -59
63 -81 41 -39 44 -55 8 -43 -18 5 -43 38 -79 102 -7 13 -22 23 -33 23 -18 0
-26 20 -12 33 15 15 31 5 53 -34z m-172 -60 c-17 -11 -27 -2 -25 21 1 18 2 18
19 3 14 -12 15 -18 6 -24z m466 22 c3 -5 -6 -11 -21 -14 -26 -5 -26 -4 -8 9
22 17 22 17 29 5z m226 -56 l-7 -50 -2 46 c0 25 2 49 6 52 10 11 11 5 3 -48z
m-285 25 c-3 -5 -12 -10 -18 -10 -7 0 -6 4 3 10 19 12 23 12 15 0z m-428 -46
c-10 -10 -48 27 -41 38 4 6 16 1 27 -11 12 -11 18 -24 14 -27z m368 16 c-16
-11 -37 -20 -45 -19 -8 0 1 8 20 18 47 25 62 26 25 1z m-306 -51 c14 -32 11
-48 -6 -27 -15 19 -26 58 -16 58 4 0 14 -14 22 -31z m171 -59 c0 -10 -52 -40
-70 -40 -5 0 -10 11 -10 25 0 23 4 25 40 25 22 0 40 -4 40 -10z"/>
<path d="M4600 5060 c0 -5 7 -10 15 -10 8 0 15 5 15 10 0 6 -7 10 -15 10 -8 0
-15 -4 -15 -10z"/>
<path d="M515 5000 c-4 -12 -5 -24 -2 -27 3 -2 8 5 12 17 4 12 5 24 2 27 -3 2
-8 -5 -12 -17z"/>
<path d="M941 4984 c-12 -15 -19 -34 -17 -41 6 -15 -36 -35 -57 -27 -7 2 -22
-5 -32 -16 -11 -11 -28 -29 -38 -39 -11 -11 -27 -16 -42 -13 -18 3 -25 0 -25
-12 0 -21 42 -12 85 18 37 26 93 26 158 1 26 -10 51 -15 54 -11 8 8 10 143 2
150 -3 3 -19 9 -36 12 -25 5 -34 1 -52 -22z"/>
<path d="M630 4900 c0 -19 31 -23 48 -6 15 15 14 16 -16 16 -18 0 -32 -5 -32
-10z"/>
<path d="M4525 4850 c-3 -5 -1 -10 4 -10 6 0 11 5 11 10 0 6 -2 10 -4 10 -3 0
-8 -4 -11 -10z"/>
<path d="M4700 4776 c0 -8 5 -18 10 -21 6 -3 10 1 10 9 0 8 -4 18 -10 21 -5 3
-10 -1 -10 -9z"/>
<path d="M470 4709 c0 -18 30 -49 48 -49 7 0 12 7 12 15 0 8 -7 15 -16 15 -9
0 -23 8 -30 18 -12 15 -13 15 -14 1z"/>
<path d="M910 4670 c0 -5 6 -10 14 -10 8 0 18 5 21 10 3 6 -3 10 -14 10 -12 0
-21 -4 -21 -10z"/>
<path d="M604 4628 c4 -24 11 -65 16 -93 5 -27 9 -91 9 -141 1 -75 4 -94 19
-107 10 -10 25 -17 33 -17 12 0 11 2 -1 10 -13 9 -13 11 -1 19 12 8 12 13 -1
33 -20 32 -27 73 -18 114 6 25 3 48 -11 84 -10 28 -19 70 -19 95 0 35 -4 45
-16 45 -14 0 -16 -7 -10 -42z"/>
<path d="M1097 4653 c-10 -9 -8 -153 1 -153 14 0 32 48 32 83 0 59 -15 89 -33
70z"/>
<path d="M1330 4638 c0 -8 7 -15 15 -15 18 0 15 19 -3 25 -7 2 -12 -3 -12 -10z"/>
<path d="M531 4470 c0 -14 7 -61 14 -105 l14 -80 -6 95 c-3 52 -9 99 -14 105
-5 5 -9 -1 -8 -15z"/>
<path d="M1470 4429 c0 -5 5 -7 10 -4 6 3 10 8 10 11 0 2 -4 4 -10 4 -5 0 -10
-5 -10 -11z"/>
<path d="M340 4330 c0 -13 18 -22 24 -11 3 5 -1 11 -9 15 -8 3 -15 1 -15 -4z"/>
<path d="M562 4260 c0 -14 2 -19 5 -12 2 6 2 18 0 25 -3 6 -5 1 -5 -13z"/>
<path d="M1235 4270 c3 -6 1 -10 -5 -10 -6 0 -8 -11 -4 -27 4 -19 2 -24 -4
-15 -7 11 -11 11 -20 0 -16 -19 -9 -49 14 -60 18 -9 18 -9 0 6 -18 15 -18 16
-2 16 9 0 15 4 11 9 -3 5 4 12 15 16 15 5 20 14 18 35 -1 16 -8 32 -16 35 -7
2 -10 0 -7 -5z"/>
<path d="M1157 4149 c-3 -10 0 -22 6 -26 7 -3 9 -3 5 2 -4 4 0 13 9 20 14 10
14 12 0 18 -10 4 -17 -1 -20 -14z"/>
<path d="M1125 4103 c-11 -3 -24 -10 -30 -15 -7 -8 -6 -9 3 -4 11 7 16 -4 13
-30 -1 -6 5 -11 12 -11 7 0 14 9 14 19 1 10 -2 16 -8 13 -5 -4 -9 -2 -9 3 0 5
10 14 23 20 23 11 16 13 -18 5z"/>
<path d="M1156 4073 c-6 -14 -5 -15 5 -6 7 7 10 15 7 18 -3 3 -9 -2 -12 -12z"/>
<path d="M1071 4044 c13 -16 29 -19 29 -5 0 5 -9 11 -21 14 -16 4 -18 3 -8 -9z"/>
<path d="M895 3940 c-3 -5 -1 -10 4 -10 6 0 11 5 11 10 0 6 -2 10 -4 10 -3 0
-8 -4 -11 -10z"/>
<path d="M571 3836 c-7 -8 -14 -33 -16 -55 -2 -22 -7 -46 -11 -53 -4 -7 -9
-42 -11 -78 -2 -36 -5 -87 -7 -115 -1 -27 0 -59 4 -70 6 -17 8 -16 13 10 3 17
6 55 7 85 0 30 8 87 16 125 18 81 29 165 21 165 -2 0 -10 -6 -16 -14z"/>
<path d="M1128 3843 c7 -3 16 -2 19 1 4 3 -2 6 -13 5 -11 0 -14 -3 -6 -6z"/>
<path d="M980 3810 c0 -5 5 -10 10 -10 6 0 10 5 10 10 0 6 -4 10 -10 10 -5 0
-10 -4 -10 -10z"/>
<path d="M1009 3792 c-9 -9 -19 -24 -23 -32 -5 -9 -2 -8 7 3 8 9 19 17 26 17
6 0 11 7 11 15 0 18 -1 18 -21 -3z"/>
<path d="M1510 3759 c0 -5 5 -7 10 -4 6 3 10 8 10 11 0 2 -4 4 -10 4 -5 0 -10
-5 -10 -11z"/>
<path d="M1040 3694 c0 -8 5 -12 10 -9 6 3 10 10 10 16 0 5 -4 9 -10 9 -5 0
-10 -7 -10 -16z"/>
<path d="M1135 3470 c3 -5 14 -10 23 -10 15 0 15 2 2 10 -20 13 -33 13 -25 0z"/>
<path d="M1045 3455 c4 -11 8 -25 8 -32 0 -7 5 -11 10 -10 5 1 12 -4 15 -12 3
-9 0 -11 -9 -6 -7 5 -3 -6 10 -24 13 -18 26 -30 29 -27 2 3 -1 12 -8 21 -7 8
-10 22 -6 30 3 8 1 15 -4 15 -6 0 -20 15 -31 33 -12 17 -18 23 -14 12z"/>
<path d="M496 3365 c-3 -8 -1 -15 4 -15 6 0 10 7 10 15 0 8 -2 15 -4 15 -2 0
-6 -7 -10 -15z"/>
<path d="M1085 3319 c28 -14 49 -60 32 -71 -9 -6 -6 -13 11 -28 13 -10 23 -23
23 -27 0 -4 7 -7 15 -5 8 2 14 -2 14 -8 0 -5 -10 -10 -22 -10 -21 -1 -21 -2
-5 -11 9 -5 17 -18 17 -27 0 -13 2 -14 9 -4 7 11 9 11 14 -2 9 -24 -12 -19
-52 11 -27 20 -31 21 -18 6 12 -13 16 -29 13 -41 -5 -14 -1 -21 13 -25 11 -2
23 -1 28 3 4 4 19 4 33 -1 14 -4 18 -7 10 -8 -8 -1 -28 -13 -45 -27 -25 -22
-26 -25 -8 -20 12 4 24 2 28 -4 3 -5 -1 -10 -9 -10 -9 0 -16 -4 -16 -10 0 -5
7 -7 15 -4 11 5 13 2 9 -10 -7 -17 24 -49 38 -40 4 3 5 -2 2 -10 -3 -9 -12
-12 -22 -9 -11 4 -13 3 -7 -3 5 -5 13 -13 16 -18 4 -5 15 6 24 25 10 19 21 36
25 39 10 7 31 75 28 91 -2 8 2 13 9 12 7 -2 10 4 7 12 -4 8 -11 12 -17 8 -6
-4 -8 0 -4 10 3 10 2 17 -3 17 -6 0 -10 5 -10 11 0 5 6 7 13 3 9 -6 9 -5 0 8
-7 8 -10 18 -6 21 3 4 1 7 -6 7 -8 0 -11 8 -8 19 3 12 -1 22 -10 25 -11 5 -12
10 -4 20 14 17 2 29 -16 14 -11 -9 -12 -7 -7 7 5 12 4 16 -4 11 -6 -3 -13 -2
-17 4 -4 6 -11 8 -16 5 -5 -3 -7 0 -4 7 8 19 -29 38 -83 42 -35 3 -42 2 -27
-5z m82 -225 c-3 -3 -12 -4 -19 -1 -8 3 -5 6 6 6 11 1 17 -2 13 -5z m63 -54
c0 -5 -5 -10 -11 -10 -5 0 -7 5 -4 10 3 6 8 10 11 10 2 0 4 -4 4 -10z"/>
<path d="M1640 3310 c0 -5 7 -7 15 -4 8 4 15 8 15 10 0 2 -7 4 -15 4 -8 0 -15
-4 -15 -10z"/>
<path d="M2021 3294 c0 -11 3 -14 6 -6 3 7 2 16 -1 19 -3 4 -6 -2 -5 -13z"/>
<path d="M1345 3289 c-11 -16 -1 -19 13 -3 7 8 8 14 3 14 -5 0 -13 -5 -16 -11z"/>
<path d="M1275 3280 c-3 -5 -1 -10 4 -10 6 0 11 5 11 10 0 6 -2 10 -4 10 -3 0
-8 -4 -11 -10z"/>
<path d="M1782 3260 c0 -14 2 -19 5 -12 2 6 2 18 0 25 -3 6 -5 1 -5 -13z"/>
<path d="M1363 3253 c4 -6 1 -13 -6 -16 -8 -3 -13 -16 -12 -29 1 -12 5 -22 8
-20 4 1 9 2 12 2 3 0 1 9 -5 20 -9 16 -8 20 5 20 18 0 20 16 3 26 -6 4 -8 3
-5 -3z"/>
<path d="M1797 3202 c3 -12 9 -25 14 -28 14 -8 11 10 -6 32 -13 18 -14 18 -8
-4z"/>
<path d="M1830 3190 c0 -5 5 -10 11 -10 5 0 7 5 4 10 -3 6 -8 10 -11 10 -2 0
-4 -4 -4 -10z"/>
<path d="M1377 3184 c-13 -13 -7 -24 13 -24 11 0 20 5 20 11 0 5 -4 8 -9 5 -5
-4 -11 -1 -13 5 -2 5 -7 7 -11 3z"/>
<path d="M566 3142 c-5 -18 -5 -36 -2 -39 7 -7 19 43 13 59 -2 7 -7 -2 -11
-20z"/>
<path d="M1690 3167 c0 -2 7 -20 15 -40 8 -19 11 -38 7 -41 -3 -4 1 -4 9 -1
18 7 21 37 5 47 -6 4 -11 13 -11 19 0 7 -6 14 -12 17 -7 2 -13 2 -13 -1z"/>
<path d="M1675 3100 c-3 -5 -1 -10 4 -10 6 0 11 5 11 10 0 6 -2 10 -4 10 -3 0
-8 -4 -11 -10z"/>
<path d="M570 3038 c0 -16 -4 -28 -10 -28 -5 0 -10 -12 -10 -27 0 -32 5 -28
24 18 9 23 11 40 5 50 -6 10 -9 7 -9 -13z"/>
<path d="M1931 3045 c0 -5 3 -15 7 -22 5 -9 12 -6 21 10 13 20 13 21 -1 9 -13
-10 -17 -10 -21 0 -3 7 -6 9 -6 3z"/>
<path d="M646 2963 c-6 -14 -5 -15 5 -6 7 7 10 15 7 18 -3 3 -9 -2 -12 -12z"/>
<path d="M1845 2950 c3 -5 8 -10 11 -10 2 0 4 5 4 10 0 6 -5 10 -11 10 -5 0
-7 -4 -4 -10z"/>
<path d="M381 2898 c0 -39 3 -48 9 -33 12 28 12 85 0 85 -5 0 -10 -24 -9 -52z"/>
<path d="M670 2936 c0 -8 -3 -21 -6 -30 -4 -11 -1 -16 10 -16 9 0 16 4 16 9 0
5 3 16 6 24 3 8 -2 17 -10 20 -10 4 -16 1 -16 -7z"/>
<path d="M1847 2895 c2 -7 13 -11 24 -8 25 7 24 10 -5 15 -16 3 -23 1 -19 -7z"/>
<path d="M648 2846 c-3 -14 -1 -31 3 -38 6 -9 9 -7 9 9 0 12 3 28 6 37 3 9 2
16 -4 16 -5 0 -12 -11 -14 -24z"/>
<path d="M1876 2803 c-6 -14 -5 -15 5 -6 7 7 10 15 7 18 -3 3 -9 -2 -12 -12z"/>
<path d="M1830 2789 c0 -5 7 -9 15 -9 9 0 24 -19 34 -42 l19 -43 -1 33 c0 17
-4 32 -9 32 -5 0 -7 4 -4 8 3 4 -8 13 -25 19 -16 6 -29 7 -29 2z"/>
<path d="M1911 2791 c-12 -8 -12 -14 -3 -33 l12 -23 -6 24 c-4 14 -2 21 3 18
5 -4 10 0 10 8 0 8 -1 15 -1 15 -1 0 -7 -4 -15 -9z"/>
<path d="M1795 2760 c3 -6 0 -10 -7 -10 -7 0 -2 -7 11 -16 17 -13 25 -14 34
-4 9 9 9 11 -2 8 -7 -2 -16 3 -18 10 -4 9 1 10 22 2 20 -7 26 -7 23 1 -2 7
-19 13 -37 15 -19 3 -30 0 -26 -6z"/>
<path d="M1698 2703 c6 -2 12 -11 12 -19 0 -17 26 -19 36 -2 4 6 3 8 -3 5 -6
-4 -16 0 -23 8 -7 8 -18 15 -24 14 -7 0 -6 -2 2 -6z"/>
<path d="M1780 2706 c0 -2 6 -9 14 -15 10 -9 15 -8 19 2 3 8 -3 13 -14 14 -10
1 -19 0 -19 -1z"/>
<path d="M1847 2683 c-11 -10 -8 -45 3 -38 6 4 7 11 4 17 -4 6 -2 8 3 5 6 -4
13 0 17 8 5 15 -15 21 -27 8z"/>
<path d="M1683 2663 c4 -3 2 -12 -4 -20 -9 -9 -8 -13 0 -13 6 0 11 2 11 4 0 2
3 11 6 20 4 10 1 16 -7 16 -7 0 -9 -3 -6 -7z"/>
<path d="M1867 2638 c-6 -19 14 -58 30 -58 11 0 18 -20 14 -43 -1 -5 3 -6 9
-2 14 8 13 56 -1 53 -6 -2 -14 3 -17 11 -3 8 0 11 7 7 6 -4 11 -1 11 8 0 10
-6 13 -15 10 -8 -4 -15 -11 -15 -18 0 -6 -4 -5 -9 3 -5 8 -7 20 -4 28 3 7 3
13 0 13 -3 0 -7 -6 -10 -12z"/>
<path d="M2005 2540 c-3 -5 -1 -10 4 -10 6 0 11 5 11 10 0 6 -2 10 -4 10 -3 0
-8 -4 -11 -10z"/>
<path d="M1678 2533 c7 -3 16 -2 19 1 4 3 -2 6 -13 5 -11 0 -14 -3 -6 -6z"/>
<path d="M1929 2457 c5 -5 17 -5 28 2 16 9 15 10 -9 9 -16 -2 -24 -6 -19 -11z"/>
<path d="M1595 2290 c3 -5 8 -10 11 -10 2 0 4 5 4 10 0 6 -5 10 -11 10 -5 0
-7 -4 -4 -10z"/>
<path d="M1488 2223 c-26 -31 -31 -43 -13 -37 11 5 14 2 9 -12 -5 -18 -5 -18
6 -1 6 10 9 24 7 31 -3 8 0 19 6 25 6 6 9 11 6 11 -3 0 -13 -8 -21 -17z"/>
<path d="M1770 2020 c0 -5 7 -7 15 -4 8 4 15 8 15 10 0 2 -7 4 -15 4 -8 0 -15
-4 -15 -10z"/>
<path d="M1746 1952 c-3 -5 1 -9 9 -9 8 0 15 4 15 9 0 4 -4 8 -9 8 -6 0 -12
-4 -15 -8z"/>
<path d="M2307 1615 c3 -8 9 -12 14 -9 12 7 11 11 -5 17 -10 4 -13 1 -9 -8z"/>
<path d="M2235 1600 c3 -6 -1 -10 -10 -10 -15 0 -15 -2 -1 -15 17 -17 30 -20
21 -5 -3 6 -1 10 4 10 17 0 13 17 -5 24 -8 3 -12 2 -9 -4z"/>
<path d="M2070 1537 c-12 -19 -11 -21 2 -10 8 7 18 10 21 6 4 -3 7 -1 7 5 0
21 -16 21 -30 -1z"/>
<path d="M1723 1532 c-8 -5 -9 -13 -3 -22 8 -13 10 -13 10 2 0 9 6 19 13 21 6
3 8 6 2 6 -5 0 -15 -3 -22 -7z"/>
<path d="M1818 1535 c-8 -9 19 -65 31 -65 10 0 22 53 14 60 -3 3 -8 -1 -10 -7
-6 -18 -21 -16 -25 3 -2 9 -6 13 -10 9z"/>
<path d="M2265 1530 c-3 -5 -1 -10 4 -10 6 0 11 5 11 10 0 6 -2 10 -4 10 -3 0
-8 -4 -11 -10z"/>
<path d="M1615 1520 c-3 -5 -1 -10 4 -10 6 0 11 5 11 10 0 6 -2 10 -4 10 -3 0
-8 -4 -11 -10z"/>
<path d="M2000 1510 c0 -5 5 -10 11 -10 5 0 7 5 4 10 -3 6 -8 10 -11 10 -2 0
-4 -4 -4 -10z"/>
<path d="M1648 1503 c-15 -4 -33 -32 -25 -39 2 -2 14 7 27 21 13 14 22 24 19
24 -2 -1 -11 -3 -21 -6z"/>
<path d="M1690 1500 c-9 -6 -10 -10 -3 -10 6 0 15 5 18 10 8 12 4 12 -15 0z"/>
<path d="M2128 1498 c5 -5 16 -8 23 -6 8 3 3 7 -10 11 -17 4 -21 3 -13 -5z"/>
<path d="M1600 1481 c-6 -12 -7 -21 -1 -21 10 0 24 30 17 37 -2 3 -9 -5 -16
-16z"/>
<path d="M2201 1493 c0 -4 4 -17 9 -28 8 -19 9 -19 9 2 1 12 -3 25 -9 28 -5 3
-10 3 -9 -2z"/>
<path d="M1014 1328 c1 -10 5 -21 9 -24 4 -4 7 -16 7 -26 0 -10 5 -18 10 -18
16 0 11 33 -10 60 -14 18 -18 20 -16 8z"/>
<path d="M1982 1300 c0 -14 2 -19 5 -12 2 6 2 18 0 25 -3 6 -5 1 -5 -13z"/>
<path d="M1785 1250 c-3 -5 -1 -10 4 -10 6 0 11 5 11 10 0 6 -2 10 -4 10 -3 0
-8 -4 -11 -10z"/>
<path d="M1915 1200 c-3 -5 -2 -10 4 -10 5 0 13 5 16 10 3 6 2 10 -4 10 -5 0
-13 -4 -16 -10z"/>
<path d="M2931 1191 c-15 -10 -4 -61 13 -61 13 0 21 56 8 64 -4 2 -14 1 -21
-3z"/>
<path d="M1842 1170 c0 -14 2 -19 5 -12 2 6 2 18 0 25 -3 6 -5 1 -5 -13z"/>
<path d="M2875 1180 c-3 -5 -3 -14 0 -20 3 -5 2 -10 -3 -10 -11 0 -15 -87 -4
-93 4 -3 14 -2 21 3 11 6 12 17 4 47 -5 22 -6 49 -2 61 8 22 -4 31 -16 12z"/>
<path d="M3033 1006 c0 -15 3 -29 8 -32 11 -7 11 27 0 45 -6 9 -8 5 -8 -13z"/>
<path d="M2870 994 c0 -8 5 -12 10 -9 6 3 10 10 10 16 0 5 -4 9 -10 9 -5 0
-10 -7 -10 -16z"/>
<path d="M2880 960 c0 -5 4 -10 9 -10 6 0 13 5 16 10 3 6 -1 10 -9 10 -9 0
-16 -4 -16 -10z"/>
<path d="M2562 849 c-12 -18 -11 -24 2 -37 15 -15 16 -14 16 5 0 12 3 28 6 37
9 23 -9 19 -24 -5z"/>
<path d="M2954 850 c17 -88 29 -130 37 -130 11 0 6 23 -22 100 -10 30 -17 44
-15 30z"/>
<path d="M2781 706 c-11 -25 -26 -47 -33 -47 -7 -1 -17 -2 -23 -4 -5 -1 -16
-3 -22 -3 -21 -3 -15 -18 13 -31 28 -12 37 -6 65 42 5 10 14 15 20 12 5 -4 9
-1 9 4 0 6 -4 11 -10 11 -6 0 -6 9 1 26 17 46 2 38 -20 -10z"/>
<path d="M2870 700 c0 -5 5 -10 10 -10 6 0 10 5 10 10 0 6 -4 10 -10 10 -5 0
-10 -4 -10 -10z"/>
<path d="M2506 672 c-4 -7 2 -32 14 -56 23 -48 55 -66 116 -66 29 0 33 3 30
23 -3 23 -30 35 -41 18 -20 -34 -83 5 -102 64 -6 19 -12 25 -17 17z"/>
<path d="M1823 615 c-3 -9 -3 -35 0 -58 4 -30 3 -37 -4 -24 -6 9 -13 17 -17
17 -13 0 -32 -64 -32 -107 0 -24 -5 -43 -12 -46 -8 -3 -7 -6 4 -6 9 -1 20 8
23 19 7 24 23 26 31 5 4 -8 10 -12 16 -9 5 3 5 11 0 17 -13 19 -13 67 0 64 9
-1 13 19 13 70 0 69 -8 92 -22 58z"/>
<path d="M2767 599 c7 -7 15 -10 18 -7 3 3 -2 9 -12 12 -14 6 -15 5 -6 -5z"/>
<path d="M2892 435 c-15 -33 -15 -35 3 -35 10 0 15 10 15 30 0 37 -3 37 -18 5z"/>
<path d="M3075 300 c3 -5 8 -10 11 -10 2 0 4 5 4 10 0 6 -5 10 -11 10 -5 0 -7
-4 -4 -10z"/>
<path d="M3011 184 c0 -11 3 -14 6 -6 3 7 2 16 -1 19 -3 4 -6 -2 -5 -13z"/>
<path d="M2160 50 c0 -8 8 -24 16 -35 16 -19 16 -19 9 5 -9 31 -25 50 -25 30z"/>
<path d="M2920 9 c0 -5 5 -7 10 -4 6 3 10 8 10 11 0 2 -4 4 -10 4 -5 0 -10 -5
-10 -11z"/>
</g>
</svg>
